<svg width="16" height="16" viewBox="0 0 16 16" fill="none" xmlns="http://www.w3.org/2000/svg">
<path d="M7.99998 1.99731V5.33204" stroke="#22863A" stroke-linecap="round" stroke-linejoin="round"/>
<path d="M4.66528 11.3347H5.99917" stroke="#22863A" stroke-linecap="round" stroke-linejoin="round"/>
<path d="M14.0026 6.66592C14.0026 5.92923 13.4054 5.33203 12.6687 5.33203H3.33145C2.59476 5.33203 1.99756 5.92923 1.99756 6.66592" stroke="#22863A" stroke-linecap="round" stroke-linejoin="round"/>
<path fill-rule="evenodd" clip-rule="evenodd" d="M12.6687 14.0023H3.49818C2.66941 14.0023 1.99756 13.3305 1.99756 12.5017V5.66551C1.99735 5.3053 2.07042 4.94882 2.21232 4.61774L2.94195 2.90836C3.17789 2.35568 3.72092 1.99716 4.32186 1.99731H11.6776C12.2785 1.99716 12.8216 2.35568 13.0575 2.90836L13.7911 4.61774C13.9318 4.94909 14.0037 5.30554 14.0026 5.66551V12.6684C14.0026 13.4051 13.4054 14.0023 12.6687 14.0023Z" stroke="#22863A" stroke-linecap="round" stroke-linejoin="round"/>
</svg>
