<svg width="20" height="20" viewBox="0 0 20 20" fill="none" xmlns="http://www.w3.org/2000/svg">
<path fill-rule="evenodd" clip-rule="evenodd" d="M6.2233 2.11576C6.08207 2.04022 5.91405 2 5.6953 2H5.63804C5.41929 2 5.25127 2.04022 5.11003 2.11576C4.9688 2.19129 4.85796 2.30213 4.78242 2.44337C4.70689 2.5846 4.66667 2.75262 4.66667 2.97137L4.66581 3.44131C4.26124 3.51631 3.98383 3.62957 3.70526 3.77855C3.16205 4.06907 2.73573 4.49538 2.44522 5.03859C2.15471 5.5818 2 6.12061 2 7.60648V13.0602C2 14.5461 2.15471 15.0849 2.44522 15.6281C2.73573 16.1713 3.16205 16.5976 3.70526 16.8881C4.24847 17.1786 4.78728 17.3333 6.27314 17.3333H13.7269C15.2127 17.3333 15.7515 17.1786 16.2947 16.8881C16.838 16.5976 17.2643 16.1713 17.5548 15.6281C17.8453 15.0849 18 14.5461 18 13.0602V7.60648C18 6.12061 17.8453 5.5818 17.5548 5.03859C17.2643 4.49538 16.838 4.06907 16.2947 3.77855C16.0165 3.62974 15.7394 3.51656 15.3355 3.44155L15.3333 2.97137C15.3333 2.75262 15.2931 2.5846 15.2176 2.44337C15.142 2.30213 15.0312 2.19129 14.89 2.11576C14.7487 2.04022 14.5807 2 14.362 2H14.3047C14.086 2 13.9179 2.04022 13.7767 2.11576C13.6355 2.19129 13.5246 2.30213 13.4491 2.44337C13.3736 2.5846 13.3333 2.75262 13.3333 2.97137V3.33333L6.66667 3.332V2.97137C6.66667 2.75262 6.62644 2.5846 6.55091 2.44337C6.47538 2.30213 6.36453 2.19129 6.2233 2.11576ZM5.11102 7.33333H14.889C15.2753 7.33333 15.4154 7.37356 15.5566 7.44909C15.6979 7.52462 15.8087 7.63547 15.8842 7.7767C15.9598 7.91793 16 8.05802 16 8.44435V13.6241L15.9971 13.8299C15.9837 14.2723 15.9236 14.4611 15.8219 14.6512C15.7057 14.8685 15.5352 15.039 15.3179 15.1552C15.1006 15.2714 14.8851 15.3333 14.2907 15.3333H5.70926L5.50339 15.3304C5.061 15.317 4.87223 15.2569 4.6821 15.1552C4.46482 15.039 4.29429 14.8685 4.17809 14.6512C4.06188 14.4339 4 14.2184 4 13.6241V8.44435L4.00245 8.29314C4.01221 8.01798 4.05102 7.89776 4.11576 7.7767C4.19129 7.63547 4.30213 7.52462 4.44337 7.44909C4.5846 7.37356 4.72469 7.33333 5.11102 7.33333ZM12.8098 9.33333H12.5235C12.1879 9.33333 12.0079 9.37975 11.8449 9.4669C11.6819 9.55405 11.5541 9.68195 11.4669 9.84491C11.3797 10.0079 11.3333 10.1879 11.3333 10.5235V10.8098C11.3333 11.1455 11.3797 11.3255 11.4669 11.4884C11.5541 11.6514 11.6819 11.7793 11.8449 11.8664C12.0079 11.9536 12.1879 12 12.5235 12H12.8098C13.1455 12 13.3255 11.9536 13.4884 11.8664C13.6514 11.7793 13.7793 11.6514 13.8664 11.4884C13.9536 11.3255 14 11.1455 14 10.8098V10.5235C14 10.1879 13.9536 10.0079 13.8664 9.84491C13.7793 9.68195 13.6514 9.55405 13.4884 9.4669C13.3255 9.37975 13.1455 9.33333 12.8098 9.33333Z" fill="#959DA5"/>
</svg>
