<svg width="21" height="20" viewBox="0 0 21 20" fill="none" xmlns="http://www.w3.org/2000/svg">
<path fill-rule="evenodd" clip-rule="evenodd" d="M14.5 1C14.9142 1 15.25 1.33579 15.25 1.75V2.10583C15.6338 2.16711 15.9848 2.26722 16.316 2.43597C17.0686 2.81947 17.6805 3.43139 18.064 4.18404C18.304 4.655 18.4052 5.16601 18.4532 5.75433C18.5 6.3269 18.5 7.03494 18.5 7.91752V7.91754V7.91756V7.91758V7.9176V12.0824V12.0824V12.0824V12.0825V12.0825C18.5 12.9651 18.5 13.6731 18.4532 14.2457C18.4052 14.834 18.304 15.345 18.064 15.816C17.6805 16.5686 17.0686 17.1805 16.316 17.564C15.845 17.804 15.334 17.9052 14.7457 17.9532C14.1731 18 13.465 18 12.5823 18H8.41766C7.53501 18 6.82693 18 6.25433 17.9532C5.66601 17.9052 5.155 17.804 4.68404 17.564C3.93139 17.1805 3.31947 16.5686 2.93597 15.816C2.69601 15.345 2.59484 14.834 2.54677 14.2457C2.49999 13.6731 2.49999 12.965 2.5 12.0824V7.91762C2.49999 7.035 2.49999 6.32692 2.54677 5.75433C2.59484 5.16601 2.69601 4.655 2.93597 4.18404C3.31947 3.43139 3.93139 2.81947 4.68404 2.43597C5.01523 2.26722 5.36623 2.16711 5.75 2.10583V1.75C5.75 1.33579 6.08579 1 6.5 1C6.91421 1 7.25 1.33579 7.25 1.75V2.00536C7.60097 1.99999 7.98868 2 8.41761 2H8.41762H8.41762H12.5824C13.0113 2 13.399 1.99999 13.75 2.00536V1.75C13.75 1.33579 14.0858 1 14.5 1ZM5.75 3.63402V3.75C5.75 4.16421 6.08579 4.5 6.5 4.5C6.91421 4.5 7.25 4.16421 7.25 3.75V3.50554C7.59152 3.50015 7.98586 3.5 8.45 3.5H12.55C13.0141 3.5 13.4085 3.50015 13.75 3.50554V3.75C13.75 4.16421 14.0858 4.5 14.5 4.5C14.9142 4.5 15.25 4.16421 15.25 3.75V3.63402C15.404 3.67155 15.5272 3.71759 15.635 3.77248C16.1054 4.01217 16.4878 4.39462 16.7275 4.86502C16.8418 5.08928 16.9177 5.38092 16.9582 5.87648C16.9881 6.24238 16.9966 6.68325 16.999 7.25H4.00096C4.00338 6.68325 4.01189 6.24238 4.04179 5.87648C4.08228 5.38092 4.15822 5.08928 4.27248 4.86502C4.51217 4.39462 4.89462 4.01217 5.36502 3.77248C5.47275 3.71759 5.59603 3.67155 5.75 3.63402ZM4 8.75H17V12.05C17 12.9725 16.9994 13.6192 16.9582 14.1235C16.9177 14.6191 16.8418 14.9107 16.7275 15.135C16.4878 15.6054 16.1054 15.9878 15.635 16.2275C15.4107 16.3418 15.1191 16.4177 14.6235 16.4582C14.1192 16.4994 13.4725 16.5 12.55 16.5H8.45C7.52754 16.5 6.8808 16.4994 6.37648 16.4582C5.88092 16.4177 5.58928 16.3418 5.36502 16.2275C4.89462 15.9878 4.51217 15.6054 4.27248 15.135C4.15822 14.9107 4.08228 14.6191 4.04179 14.1235C4.00058 13.6192 4 12.9725 4 12.05V8.75ZM14.25 15C14.9404 15 15.5 14.4404 15.5 13.75C15.5 13.0596 14.9404 12.5 14.25 12.5C13.5596 12.5 13 13.0596 13 13.75C13 14.4404 13.5596 15 14.25 15Z" fill="#99A2AD"/>
</svg>
