<svg width="30" height="31" viewBox="0 0 30 31" fill="none" xmlns="http://www.w3.org/2000/svg">
<rect x="3.74512" y="4.24512" width="22.5094" height="22.5094" rx="3" stroke="white" stroke-width="1.5" stroke-linecap="round" stroke-linejoin="round"/>
<path d="M26.2545 10.4978L3.74512 10.4978" stroke="white" stroke-width="1.5" stroke-linecap="round" stroke-linejoin="round"/>
<path d="M21.6277 14.8748C21.6277 14.9093 21.5997 14.9373 21.5652 14.9373C21.5307 14.9373 21.5027 14.9093 21.5027 14.8748C21.5027 14.8402 21.5307 14.8122 21.5652 14.8122" stroke="white" stroke-width="1.5" stroke-linecap="round" stroke-linejoin="round"/>
<path d="M21.5652 14.8123C21.5997 14.8123 21.6277 14.8403 21.6277 14.8748" stroke="white" stroke-width="1.5" stroke-linecap="round" stroke-linejoin="round"/>
<path d="M17.2496 14.8748C17.2496 14.9093 17.2216 14.9373 17.187 14.9373C17.1525 14.9373 17.1245 14.9093 17.1245 14.8748C17.1245 14.8402 17.1525 14.8122 17.187 14.8122" stroke="white" stroke-width="1.5" stroke-linecap="round" stroke-linejoin="round"/>
<path d="M17.187 14.8123C17.2215 14.8123 17.2495 14.8403 17.2495 14.8748" stroke="white" stroke-width="1.5" stroke-linecap="round" stroke-linejoin="round"/>
<path d="M12.8728 14.8748C12.8728 14.9093 12.8449 14.9373 12.8103 14.9373C12.7758 14.9373 12.7478 14.9093 12.7478 14.8748C12.7478 14.8402 12.7758 14.8122 12.8103 14.8122" stroke="white" stroke-width="1.5" stroke-linecap="round" stroke-linejoin="round"/>
<path d="M12.8103 14.8123C12.8448 14.8123 12.8728 14.8403 12.8728 14.8748" stroke="white" stroke-width="1.5" stroke-linecap="round" stroke-linejoin="round"/>
<path d="M8.49589 18.6262C8.49589 18.6608 8.4679 18.6888 8.43337 18.6888C8.39883 18.6888 8.37084 18.6608 8.37084 18.6262C8.37084 18.5917 8.39883 18.5637 8.43337 18.5637" stroke="white" stroke-width="1.5" stroke-linecap="round" stroke-linejoin="round"/>
<path d="M8.43335 18.5637C8.46788 18.5637 8.49588 18.5917 8.49588 18.6262" stroke="white" stroke-width="1.5" stroke-linecap="round" stroke-linejoin="round"/>
<path d="M12.8728 18.6262C12.8728 18.6608 12.8449 18.6888 12.8103 18.6888C12.7758 18.6888 12.7478 18.6608 12.7478 18.6262C12.7478 18.5917 12.7758 18.5637 12.8103 18.5637" stroke="white" stroke-width="1.5" stroke-linecap="round" stroke-linejoin="round"/>
<path d="M12.8103 18.5637C12.8448 18.5637 12.8728 18.5917 12.8728 18.6262" stroke="white" stroke-width="1.5" stroke-linecap="round" stroke-linejoin="round"/>
<path d="M17.2496 18.6262C17.2496 18.6608 17.2216 18.6888 17.187 18.6888C17.1525 18.6888 17.1245 18.6608 17.1245 18.6262C17.1245 18.5917 17.1525 18.5637 17.187 18.5637" stroke="white" stroke-width="1.5" stroke-linecap="round" stroke-linejoin="round"/>
<path d="M17.187 18.5637C17.2215 18.5637 17.2495 18.5917 17.2495 18.6262" stroke="white" stroke-width="1.5" stroke-linecap="round" stroke-linejoin="round"/>
<path d="M21.6277 18.6262C21.6277 18.6608 21.5997 18.6888 21.5652 18.6888C21.5307 18.6888 21.5027 18.6608 21.5027 18.6262C21.5027 18.5917 21.5307 18.5637 21.5652 18.5637" stroke="white" stroke-width="1.5" stroke-linecap="round" stroke-linejoin="round"/>
<path d="M21.5652 18.5637C21.5997 18.5637 21.6277 18.5917 21.6277 18.6262" stroke="white" stroke-width="1.5" stroke-linecap="round" stroke-linejoin="round"/>
<path d="M21.6277 22.3777C21.6277 22.4122 21.5997 22.4402 21.5652 22.4402C21.5307 22.4402 21.5027 22.4122 21.5027 22.3777C21.5027 22.3432 21.5307 22.3152 21.5652 22.3152" stroke="white" stroke-width="1.5" stroke-linecap="round" stroke-linejoin="round"/>
<path d="M21.5652 22.3152C21.5997 22.3152 21.6277 22.3432 21.6277 22.3777" stroke="white" stroke-width="1.5" stroke-linecap="round" stroke-linejoin="round"/>
<path d="M17.2496 22.3777C17.2496 22.4122 17.2216 22.4402 17.187 22.4402C17.1525 22.4402 17.1245 22.4122 17.1245 22.3777C17.1245 22.3432 17.1525 22.3152 17.187 22.3152" stroke="white" stroke-width="1.5" stroke-linecap="round" stroke-linejoin="round"/>
<path d="M17.187 22.3152C17.2215 22.3152 17.2495 22.3432 17.2495 22.3777" stroke="white" stroke-width="1.5" stroke-linecap="round" stroke-linejoin="round"/>
<path d="M12.8728 22.3777C12.8728 22.4122 12.8449 22.4402 12.8103 22.4402C12.7758 22.4402 12.7478 22.4122 12.7478 22.3777C12.7478 22.3432 12.7758 22.3152 12.8103 22.3152" stroke="white" stroke-width="1.5" stroke-linecap="round" stroke-linejoin="round"/>
<path d="M12.8103 22.3152C12.8448 22.3152 12.8728 22.3432 12.8728 22.3777" stroke="white" stroke-width="1.5" stroke-linecap="round" stroke-linejoin="round"/>
<path d="M8.49589 22.3777C8.49589 22.4122 8.4679 22.4402 8.43337 22.4402C8.39883 22.4402 8.37084 22.4122 8.37084 22.3777C8.37084 22.3432 8.39883 22.3152 8.43337 22.3152" stroke="white" stroke-width="1.5" stroke-linecap="round" stroke-linejoin="round"/>
<path d="M8.43335 22.3152C8.46788 22.3152 8.49588 22.3432 8.49588 22.3777" stroke="white" stroke-width="1.5" stroke-linecap="round" stroke-linejoin="round"/>
</svg>
