<svg width="24" height="24" viewBox="0 0 24 24" fill="none" xmlns="http://www.w3.org/2000/svg">
<rect x="2.99634" y="2.99634" width="18.0075" height="18.0075" rx="3" stroke="#ACACAC" stroke-width="1.5" stroke-linecap="round" stroke-linejoin="round"/>
<path d="M21.0038 7.9985H2.99634" stroke="#ACACAC" stroke-width="1.5" stroke-linecap="round" stroke-linejoin="round"/>
<path d="M17.3024 11.5C17.3024 11.5276 17.28 11.55 17.2524 11.55C17.2248 11.55 17.2024 11.5276 17.2024 11.5C17.2024 11.4723 17.2248 11.4499 17.2524 11.4499" stroke="#ACACAC" stroke-width="1.5" stroke-linecap="round" stroke-linejoin="round"/>
<path d="M17.2523 11.4498C17.2799 11.4498 17.3023 11.4722 17.3023 11.4998" stroke="#ACACAC" stroke-width="1.5" stroke-linecap="round" stroke-linejoin="round"/>
<path d="M13.8 11.5C13.8 11.5276 13.7776 11.55 13.75 11.55C13.7223 11.55 13.6999 11.5276 13.6999 11.5C13.6999 11.4723 13.7223 11.4499 13.75 11.4499" stroke="#ACACAC" stroke-width="1.5" stroke-linecap="round" stroke-linejoin="round"/>
<path d="M13.7499 11.4498C13.7775 11.4498 13.7999 11.4722 13.7999 11.4998" stroke="#ACACAC" stroke-width="1.5" stroke-linecap="round" stroke-linejoin="round"/>
<path d="M10.2985 11.5C10.2985 11.5276 10.2761 11.55 10.2485 11.55C10.2209 11.55 10.1985 11.5276 10.1985 11.5C10.1985 11.4723 10.2209 11.4499 10.2485 11.4499" stroke="#ACACAC" stroke-width="1.5" stroke-linecap="round" stroke-linejoin="round"/>
<path d="M10.2484 11.4498C10.276 11.4498 10.2984 11.4722 10.2984 11.4998" stroke="#ACACAC" stroke-width="1.5" stroke-linecap="round" stroke-linejoin="round"/>
<path d="M6.79706 14.5012C6.79706 14.5288 6.77466 14.5512 6.74703 14.5512C6.71941 14.5512 6.69701 14.5288 6.69701 14.5012C6.69701 14.4736 6.71941 14.4512 6.74703 14.4512" stroke="#ACACAC" stroke-width="1.5" stroke-linecap="round" stroke-linejoin="round"/>
<path d="M6.74693 14.451C6.77455 14.451 6.79695 14.4734 6.79695 14.501" stroke="#ACACAC" stroke-width="1.5" stroke-linecap="round" stroke-linejoin="round"/>
<path d="M10.2985 14.5012C10.2985 14.5288 10.2761 14.5512 10.2485 14.5512C10.2209 14.5512 10.1985 14.5288 10.1985 14.5012C10.1985 14.4736 10.2209 14.4512 10.2485 14.4512" stroke="#ACACAC" stroke-width="1.5" stroke-linecap="round" stroke-linejoin="round"/>
<path d="M10.2484 14.451C10.276 14.451 10.2984 14.4734 10.2984 14.501" stroke="#ACACAC" stroke-width="1.5" stroke-linecap="round" stroke-linejoin="round"/>
<path d="M13.8 14.5012C13.8 14.5288 13.7776 14.5512 13.75 14.5512C13.7223 14.5512 13.6999 14.5288 13.6999 14.5012C13.6999 14.4736 13.7223 14.4512 13.75 14.4512" stroke="#ACACAC" stroke-width="1.5" stroke-linecap="round" stroke-linejoin="round"/>
<path d="M13.7499 14.451C13.7775 14.451 13.7999 14.4734 13.7999 14.501" stroke="#ACACAC" stroke-width="1.5" stroke-linecap="round" stroke-linejoin="round"/>
<path d="M17.3024 14.5012C17.3024 14.5288 17.28 14.5512 17.2524 14.5512C17.2248 14.5512 17.2024 14.5288 17.2024 14.5012C17.2024 14.4736 17.2248 14.4512 17.2524 14.4512" stroke="#ACACAC" stroke-width="1.5" stroke-linecap="round" stroke-linejoin="round"/>
<path d="M17.2523 14.451C17.2799 14.451 17.3023 14.4734 17.3023 14.501" stroke="#ACACAC" stroke-width="1.5" stroke-linecap="round" stroke-linejoin="round"/>
<path d="M17.3024 17.5024C17.3024 17.53 17.28 17.5524 17.2524 17.5524C17.2248 17.5524 17.2024 17.53 17.2024 17.5024C17.2024 17.4748 17.2248 17.4524 17.2524 17.4524" stroke="#ACACAC" stroke-width="1.5" stroke-linecap="round" stroke-linejoin="round"/>
<path d="M17.2523 17.4525C17.2799 17.4525 17.3023 17.4749 17.3023 17.5025" stroke="#ACACAC" stroke-width="1.5" stroke-linecap="round" stroke-linejoin="round"/>
<path d="M13.8 17.5024C13.8 17.53 13.7776 17.5524 13.75 17.5524C13.7223 17.5524 13.6999 17.53 13.6999 17.5024C13.6999 17.4748 13.7223 17.4524 13.75 17.4524" stroke="#ACACAC" stroke-width="1.5" stroke-linecap="round" stroke-linejoin="round"/>
<path d="M13.7499 17.4525C13.7775 17.4525 13.7999 17.4749 13.7999 17.5025" stroke="#ACACAC" stroke-width="1.5" stroke-linecap="round" stroke-linejoin="round"/>
<path d="M10.2985 17.5024C10.2985 17.53 10.2761 17.5524 10.2485 17.5524C10.2209 17.5524 10.1985 17.53 10.1985 17.5024C10.1985 17.4748 10.2209 17.4524 10.2485 17.4524" stroke="#ACACAC" stroke-width="1.5" stroke-linecap="round" stroke-linejoin="round"/>
<path d="M10.2484 17.4525C10.276 17.4525 10.2984 17.4749 10.2984 17.5025" stroke="#ACACAC" stroke-width="1.5" stroke-linecap="round" stroke-linejoin="round"/>
<path d="M6.79706 17.5024C6.79706 17.53 6.77466 17.5524 6.74703 17.5524C6.71941 17.5524 6.69701 17.53 6.69701 17.5024C6.69701 17.4748 6.71941 17.4524 6.74703 17.4524" stroke="#ACACAC" stroke-width="1.5" stroke-linecap="round" stroke-linejoin="round"/>
<path d="M6.74693 17.4525C6.77455 17.4525 6.79695 17.4749 6.79695 17.5025" stroke="#ACACAC" stroke-width="1.5" stroke-linecap="round" stroke-linejoin="round"/>
</svg>
