<svg width="14" height="14" viewBox="0 0 14 14" fill="none" xmlns="http://www.w3.org/2000/svg">
<path d="M8.67953 5.9312C9.58779 6.83946 9.58779 8.31204 8.67953 9.2203C7.77127 10.1286 6.29869 10.1286 5.39042 9.2203C4.48216 8.31204 4.48216 6.83946 5.39042 5.9312C6.29869 5.02293 7.77127 5.02293 8.67953 5.9312" stroke="white" stroke-linecap="round" stroke-linejoin="round"/>
<path fill-rule="evenodd" clip-rule="evenodd" d="M12.25 5.25016V10.5002C12.25 11.1447 11.7279 11.6668 11.0833 11.6668H2.91667C2.27208 11.6668 1.75 11.1447 1.75 10.5002V5.25016C1.75 4.60558 2.27208 4.0835 2.91667 4.0835H4.08333L4.93617 2.62283C5.04058 2.44375 5.2325 2.3335 5.44017 2.3335H8.53417C8.73892 2.3335 8.9285 2.44083 9.03408 2.61583L9.91667 4.0835H11.0833C11.7279 4.0835 12.25 4.60558 12.25 5.25016Z" stroke="white" stroke-linecap="round" stroke-linejoin="round"/>
</svg>
