<svg width="24" height="24" viewBox="0 0 24 24" fill="none" xmlns="http://www.w3.org/2000/svg">
<path d="M18.7344 16.4951C17.7315 17.9635 15.8322 18.6254 14.0885 17.9883L16.8126 10.4754C18.5564 11.1125 19.5875 12.845 19.4155 14.6169L22.3401 15.6854C22.8568 15.8742 23.1232 16.4477 22.9352 16.9663C22.7471 17.485 22.1758 17.7524 21.6591 17.5636L18.7344 16.4951ZM3.31733 13.2964C3.5219 12.2877 3.82401 11.2323 4.22363 10.1302C4.65858 8.93068 5.1466 7.84809 5.6877 6.8824L7.25764 7.52442C7.34739 7.56112 7.45022 7.54219 7.52115 7.4759C7.62177 7.38187 7.62739 7.22378 7.53372 7.12279L6.33133 5.82646C6.89756 4.97339 7.51409 4.23111 8.18091 3.59961C11.9232 4.96683 14.6021 6.83181 16.2176 9.19453L12.8124 18.5856C10.0618 19.3532 6.81539 19.0534 3.07308 17.6862C2.95835 16.7009 2.97084 15.6547 3.11055 14.5476H5.36547C5.50293 14.5476 5.61437 14.4358 5.61437 14.2978C5.61437 14.1923 5.54833 14.0981 5.44936 14.0626L3.31733 13.2964Z" fill="#959DA5"/>
</svg>
