<svg width="50" height="50" viewBox="0 0 50 50" fill="none" xmlns="http://www.w3.org/2000/svg">
<g id="clock-1">
<path id="Combined Shape" fill-rule="evenodd" clip-rule="evenodd" d="M25 47C12.8497 47 3 37.1503 3 25C3 12.8497 12.8497 3 25 3C37.1503 3 47 12.8497 47 25C47 37.1503 37.1503 47 25 47ZM25 29C27.2091 29 29 27.2091 29 25V11C29 9.89543 28.1046 9 27 9C25.8524 9 24.8795 9.84384 24.7172 10.9799L23.3913 20.2611C23.1558 21.9091 21.9243 23.239 20.2992 23.6002L15.9524 24.5661C14.8116 24.8196 14 25.8314 14 27C14 28.1046 14.8954 29 16 29H25Z" fill="#787878"/>
</g>
</svg>
