<svg width="21" height="20" viewBox="0 0 21 20" fill="none" xmlns="http://www.w3.org/2000/svg">
<path d="M13.5837 2C15.0177 2 15.7157 2.13478 16.4411 2.52273C17.1014 2.87588 17.6241 3.3986 17.9773 4.05893C18.3652 4.78434 18.5 5.48226 18.5 6.91631V13.0837C18.5 14.5177 18.3652 15.2157 17.9773 15.9411C17.6241 16.6014 17.1014 17.1241 16.4411 17.4773C15.7157 17.8652 15.0177 18 13.5837 18H7.41631C5.98226 18 5.28434 17.8652 4.55893 17.4773C3.8986 17.1241 3.37588 16.6014 3.02273 15.9411C2.63478 15.2157 2.5 14.5177 2.5 13.0837V6.91631C2.5 5.48226 2.63478 4.78434 3.02273 4.05893C3.37588 3.3986 3.8986 2.87588 4.55893 2.52273C5.28434 2.13478 5.98226 2 7.41631 2H13.5837ZM13.5837 3.5H7.41631C6.20871 3.5 5.74472 3.5896 5.26632 3.84545C4.8674 4.0588 4.5588 4.3674 4.34545 4.76632C4.0896 5.24472 4 5.70871 4 6.91631V13.0837C4 14.2913 4.0896 14.7553 4.34545 15.2337C4.5588 15.6326 4.8674 15.9412 5.26632 16.1545C5.74472 16.4104 6.20871 16.5 7.41631 16.5H13.5837C14.7913 16.5 15.2553 16.4104 15.7337 16.1545C16.1326 15.9412 16.4412 15.6326 16.6545 15.2337C16.9104 14.7553 17 14.2913 17 13.0837V6.91631C17 5.70871 16.9104 5.24472 16.6545 4.76632C16.4412 4.3674 16.1326 4.0588 15.7337 3.84545C15.2553 3.5896 14.7913 3.5 13.5837 3.5ZM11.75 12.5C12.1642 12.5 12.5 12.8358 12.5 13.25C12.5 13.6642 12.1642 14 11.75 14H7.25C6.83579 14 6.5 13.6642 6.5 13.25C6.5 12.8358 6.83579 12.5 7.25 12.5H11.75ZM13.75 9.25C14.1642 9.25 14.5 9.58579 14.5 10C14.5 10.4142 14.1642 10.75 13.75 10.75H7.25C6.83579 10.75 6.5 10.4142 6.5 10C6.5 9.58579 6.83579 9.25 7.25 9.25H13.75ZM13.75 6C14.1642 6 14.5 6.33579 14.5 6.75C14.5 7.16421 14.1642 7.5 13.75 7.5H7.25C6.83579 7.5 6.5 7.16421 6.5 6.75C6.5 6.33579 6.83579 6 7.25 6H13.75Z" fill="#99A2AD"/>
</svg>
