<svg width="21" height="20" viewBox="0 0 21 20" fill="none" xmlns="http://www.w3.org/2000/svg">
<path d="M7.5 3C7.91421 3 8.25 3.33579 8.25 3.75C8.25 4.16421 7.91421 4.5 7.5 4.5H6.45486C5.55206 4.5 5.22214 4.56371 4.88264 4.74528C4.60594 4.89326 4.39326 5.10594 4.24528 5.38264C4.09164 5.66991 4.02239 5.95032 4.00472 6.57674L4 6.95486V13.0451C4 13.9479 4.06371 14.2779 4.24528 14.6174C4.39326 14.8941 4.60594 15.1067 4.88264 15.2547C5.16991 15.4084 5.45032 15.4776 6.07674 15.4953L6.45486 15.5H14.5451C15.4479 15.5 15.7779 15.4363 16.1174 15.2547C16.3941 15.1067 16.6067 14.8941 16.7547 14.6174C16.9363 14.2779 17 13.9479 17 13.0451V6.95486C17 6.05206 16.9363 5.72214 16.7547 5.38264C16.6067 5.10594 16.3941 4.89326 16.1174 4.74528C15.7779 4.56371 15.4479 4.5 14.5451 4.5H13.5C13.0858 4.5 12.75 4.16421 12.75 3.75C12.75 3.33579 13.0858 3 13.5 3L14.796 3.00198C15.7613 3.01796 16.2834 3.13301 16.8248 3.42256C17.3629 3.71034 17.7897 4.13714 18.0774 4.67524C18.3911 5.26176 18.5 5.82561 18.5 6.95486L18.498 13.296C18.482 14.2613 18.367 14.7834 18.0774 15.3248C17.7897 15.8629 17.3629 16.2897 16.8248 16.5774C16.2382 16.8911 15.6744 17 14.5451 17H6.45486C5.32561 17 4.76176 16.8911 4.17524 16.5774C3.63714 16.2897 3.21034 15.8629 2.92256 15.3248C2.60889 14.7382 2.5 14.1744 2.5 13.0451V6.95486C2.5 5.82561 2.60889 5.26176 2.92256 4.67524C3.21034 4.13714 3.63714 3.71034 4.17524 3.42256C4.76176 3.10889 5.32561 3 6.45486 3H7.5ZM12 11C12.4142 11 12.75 11.3358 12.75 11.75C12.75 12.1642 12.4142 12.5 12 12.5H6.75C6.33579 12.5 6 12.1642 6 11.75C6 11.3358 6.33579 11 6.75 11H12ZM14.25 8C14.6642 8 15 8.33579 15 8.75C15 9.16421 14.6642 9.5 14.25 9.5H6.75C6.33579 9.5 6 9.16421 6 8.75C6 8.33579 6.33579 8 6.75 8H14.25ZM10.5215 2C10.6855 2 10.8115 2.03017 10.9175 2.08682C11.0234 2.14347 11.1065 2.2266 11.1632 2.33253C11.2198 2.43845 11.25 2.56447 11.25 2.72853V4.77147C11.25 4.93553 11.2198 5.06155 11.1632 5.16747C11.1065 5.2734 11.0234 5.35653 10.9175 5.41318C10.8115 5.46983 10.6855 5.5 10.5215 5.5H10.4785C10.3145 5.5 10.1885 5.46983 10.0825 5.41318C9.9766 5.35653 9.89347 5.2734 9.83682 5.16747C9.78017 5.06155 9.75 4.93553 9.75 4.77147V2.72853C9.75 2.56447 9.78017 2.43845 9.83682 2.33253C9.89347 2.2266 9.9766 2.14347 10.0825 2.08682C10.1885 2.03017 10.3145 2 10.4785 2H10.5215Z" fill="#959DA5"/>
</svg>
