<svg width="25" height="24" viewBox="0 0 25 24" fill="none" xmlns="http://www.w3.org/2000/svg">
<path d="M14.6117 15.259C15.9658 13.9047 18.0977 13.7799 19.5152 14.9717L20.5395 15.8346C21.7085 16.8183 21.8273 18.5917 20.803 19.7944C20.2444 20.4407 19.4581 20.8466 18.6078 20.9278C15.3348 21.3686 11.9013 19.7914 8.30538 16.1952C4.70943 12.5989 3.13137 9.16419 3.57219 5.89191C3.5951 5.63587 3.64831 5.38346 3.73069 5.13996C3.92132 4.5806 4.25783 4.08229 4.70546 3.69651C5.90907 2.67312 7.68129 2.79101 8.66497 3.96103L9.52681 4.98541C10.7205 6.40113 10.5967 8.5341 9.24251 9.88839L8.50746 10.6225C8.31149 10.8188 8.24733 11.1111 8.34302 11.3715C8.61049 12.1026 9.29303 13.016 10.3887 14.1117C11.4853 15.2085 12.3986 15.8901 13.1287 16.1585C13.3893 16.254 13.6815 16.1894 13.8776 15.9931L14.6117 15.259Z" fill="white"/>
</svg>
