<svg width="48" height="44" viewBox="0 0 48 44" fill="none" xmlns="http://www.w3.org/2000/svg">
<path fill-rule="evenodd" clip-rule="evenodd" d="M25.6847 0.00993823C22.1204 0.17859 18.7547 1.18418 15.7335 2.98311C12.9576 4.63604 10.6022 6.87705 8.81091 9.56979C6.03049 13.7493 4.82398 18.7095 5.36941 23.7183C5.74189 27.1386 6.95333 30.4374 8.88937 33.3031C9.13221 33.6625 9.17423 33.7392 9.1748 33.8235C9.17566 33.9522 9.14032 33.9851 8.50839 34.4436C5.94575 36.3031 3.23888 38.0268 0.48327 39.5539C0.116899 39.757 0.0253643 39.8234 0.00607982 39.9003C-0.0212343 40.0091 0.0288386 40.0686 0.46337 40.444C0.82236 40.754 1.21979 41.1184 2.06818 41.9154C3.2539 43.0292 3.87128 43.5823 4.00004 43.6462C4.03934 43.6657 4.09759 43.6773 4.15456 43.677C4.26211 43.6764 4.34094 43.6374 5.11047 43.2038C7.65736 41.7688 10.0459 40.245 12.4386 38.5285C12.7294 38.3199 12.9966 38.1343 13.0323 38.1161C13.1216 38.0706 13.2384 38.0729 13.323 38.1219C13.3596 38.1431 13.5728 38.2985 13.7968 38.4673C14.86 39.2681 15.8231 39.8673 17.0136 40.4684C19.3607 41.6535 21.8819 42.3884 24.5113 42.6538C25.2956 42.733 25.5801 42.7455 26.6143 42.746C27.5922 42.7465 27.7905 42.7394 28.4929 42.6789C31.8138 42.3928 35.0461 41.3124 37.8985 39.5351C40.6868 37.7977 43.0398 35.4384 44.7928 32.6225C45.0565 32.1989 45.0819 32.1372 45.0315 32.0426C44.9839 31.9532 44.9274 31.939 44.5272 31.9156C42.7684 31.8131 41.0822 31.6578 39.3688 31.4405C39.0462 31.3996 38.7456 31.3662 38.7008 31.3662C38.5329 31.3662 38.4679 31.4133 38.1542 31.7627C37.8428 32.1094 37.2105 32.7345 36.8716 33.0306C36.0045 33.7882 35.118 34.4151 34.1535 34.9527C32.2933 35.9894 30.2539 36.6282 28.1437 36.8349C27.5756 36.8906 27.2313 36.907 26.6309 36.907C26.0293 36.907 25.6837 36.8905 25.1181 36.8347C22.7012 36.5964 20.3716 35.8111 18.4516 34.5876C18.2003 34.4274 18.1105 34.3559 18.0756 34.2884C18.0431 34.2257 18.0537 34.1448 18.1034 34.075C18.1232 34.0471 18.3201 33.8659 18.5408 33.6722C19.2192 33.077 20.0804 32.2938 20.6455 31.758C21.7875 30.6754 23.2113 29.2385 24.2218 28.1489C28.7428 23.2739 32.635 17.8411 35.8111 11.9722C36.5595 10.5893 37.3987 8.91124 38.0642 7.46663C38.4656 6.59549 39.0646 5.2236 39.2883 4.66358C39.4091 4.3611 39.3965 4.2682 39.2136 4.11369C38.9981 3.93153 38.2071 3.40198 37.635 3.05684C34.6864 1.27802 31.5032 0.279925 27.9941 0.0340128C27.5606 0.00363754 26.1325 -0.0112596 25.6847 0.00993823ZM27.8362 5.88594C29.1369 5.99761 30.2823 6.22926 31.477 6.62221C32.0274 6.8033 32.1153 6.84877 32.1488 6.97022C32.1745 7.06327 32.1395 7.1526 31.9055 7.59132C28.7699 13.4711 24.9406 18.902 20.5053 23.7599C19.153 25.2411 17.5661 26.8431 16.1074 28.1999C15.5407 28.727 14.6779 29.5013 14.2041 29.9081C13.8985 30.1704 13.807 30.1499 13.5562 29.7626C12.2419 27.7335 11.4119 25.3641 11.1711 22.9535C11.1113 22.3551 11.0962 22.0366 11.0962 21.3741C11.0962 20.5874 11.1241 20.1384 11.2207 19.3707C11.5595 16.6774 12.6779 14.0124 14.3848 11.8309C16.3293 9.34584 18.9984 7.4908 21.976 6.55499C23.2415 6.15728 24.3592 5.95643 25.8662 5.85598C26.1219 5.83893 27.5399 5.8605 27.8362 5.88594ZM42.021 6.84845C41.9776 6.89184 41.915 7.02738 41.7271 7.48439C39.3693 13.2185 36.3535 18.6488 32.7789 23.5965C32.4912 23.9947 32.4689 24.0434 32.5246 24.1513C32.5627 24.2249 32.6514 24.2605 33.0196 24.35C34.4113 24.6881 35.9873 25.0221 37.4562 25.2902C38.2716 25.4391 38.3245 25.4455 38.4234 25.4077C38.5328 25.3659 38.5995 25.2888 38.8502 24.9142C40.9748 21.7393 42.999 18.1381 44.6435 14.6074C45.1032 13.6204 45.6884 12.297 45.7492 12.107C45.7926 11.9711 45.7661 11.8624 45.6188 11.5723C45.0479 10.4482 44.2152 9.16214 43.3803 8.11504C42.909 7.52394 42.3246 6.86282 42.2363 6.82092C42.1447 6.77743 42.0843 6.78514 42.021 6.84845ZM47.3413 17.023C47.3028 17.0615 47.2031 17.2555 47.0058 17.6756C45.7748 20.2977 44.4024 22.8464 42.8178 25.4534C42.6186 25.7812 42.5974 25.8286 42.605 25.9296C42.61 25.9957 42.6884 26.0547 42.7996 26.0761C42.9848 26.1117 44.6265 26.2601 45.6743 26.3359C46.7372 26.4129 47.1641 26.4341 47.239 26.4136C47.3973 26.3705 47.4389 26.2936 47.5288 25.8777C47.7163 25.0107 47.8638 24.0135 47.9343 23.1364C47.988 22.4674 48.0003 22.1373 48 21.3658C47.9997 20.4214 47.9663 19.8123 47.8672 18.9384C47.793 18.2853 47.643 17.358 47.5771 17.1451C47.522 16.9674 47.4396 16.9247 47.3413 17.023Z" fill="#6F42C1"/>
</svg>
