<svg width="24" height="24" viewBox="0 0 24 24" fill="none" xmlns="http://www.w3.org/2000/svg">
<path d="M2.99634 7.99826H21.0038" stroke="#306CDC" stroke-width="1.5" stroke-linecap="round" stroke-linejoin="round"/>
<path d="M18.8559 13.0065C20.1948 14.3459 20.1944 16.517 18.8552 17.856C17.516 19.1951 15.3448 19.1951 14.0056 17.856C12.6664 16.517 12.6661 14.3459 14.0049 13.0065C14.6481 12.363 15.5206 12.0015 16.4304 12.0015C17.3402 12.0015 18.2127 12.363 18.8559 13.0065" stroke="#306CDC" stroke-width="1.5" stroke-linecap="round" stroke-linejoin="round"/>
<path d="M21.0039 20.0033L18.856 17.8564" stroke="#306CDC" stroke-width="1.5" stroke-linecap="round" stroke-linejoin="round"/>
<path d="M9.49909 12.0002H6.99805" stroke="#306CDC" stroke-width="1.5" stroke-linecap="round" stroke-linejoin="round"/>
<path d="M9.99925 18.0024H5.99759C4.34004 18.0024 2.99634 16.6587 2.99634 15.0012V6.99783C2.99634 5.34029 4.34004 3.99658 5.99759 3.99658H18.0026C19.6601 3.99658 21.0038 5.34029 21.0038 6.99783V10.9995" stroke="#306CDC" stroke-width="1.5" stroke-linecap="round" stroke-linejoin="round"/>
</svg>
