<svg width="24" height="24" viewBox="0 0 24 24" fill="none" xmlns="http://www.w3.org/2000/svg">
<path d="M15.031 9.34226C15.031 9.13526 14.863 8.96826 14.656 8.96826C14.449 8.96926 14.281 9.13726 14.281 9.34426C14.281 9.55126 14.449 9.71926 14.656 9.71826C14.863 9.71826 15.031 9.55026 15.031 9.34326" stroke="#306CDC" stroke-width="1.5" stroke-linecap="round" stroke-linejoin="round"/>
<path fill-rule="evenodd" clip-rule="evenodd" d="M3.5 17.1952L9.223 11.4592C8.417 9.36524 8.849 6.90324 10.534 5.21424C12.814 2.92924 16.511 2.92924 18.79 5.21424C21.07 7.49924 21.07 11.2042 18.79 13.4902C17.089 15.1952 14.601 15.6242 12.499 14.7862L6.798 20.5002H3.5C3.5 20.5002 3.5 17.1952 3.5 17.1952Z" stroke="#306CDC" stroke-width="1.5" stroke-linecap="round" stroke-linejoin="round"/>
</svg>
