<svg width="21" height="20" viewBox="0 0 21 20" fill="none" xmlns="http://www.w3.org/2000/svg">
<path fill-rule="evenodd" clip-rule="evenodd" d="M17.7053 6.78343C17.8149 6.96237 17.8957 7.15746 17.9447 7.36154C18 7.59171 18 7.8363 18 8.32548V11.3C18 13.8202 18 15.0804 17.5095 16.043C17.0781 16.8897 16.3897 17.5781 15.543 18.0095C14.5804 18.5 13.3202 18.5 10.8 18.5H10.2C7.67976 18.5 6.41965 18.5 5.45704 18.0095C4.61031 17.5781 3.9219 16.8897 3.49047 16.043C3 15.0804 3 13.8202 3 11.3V8.7C3 6.17976 3 4.91965 3.49047 3.95704C3.9219 3.11031 4.61031 2.4219 5.45704 1.99047C6.41965 1.5 7.67976 1.5 10.2 1.5H11.1745C11.6637 1.5 11.9083 1.5 12.1385 1.55526C12.3425 1.60425 12.5376 1.68506 12.7166 1.79472C12.9184 1.9184 13.0914 2.09135 13.4373 2.43726L17.0627 6.06274C17.4086 6.40864 17.5816 6.5816 17.7053 6.78343ZM10.8 17H10.2C8.91513 17 8.04169 16.9988 7.36656 16.9437C6.70893 16.8899 6.37263 16.7926 6.13803 16.673C5.57354 16.3854 5.1146 15.9265 4.82698 15.362C4.70745 15.1274 4.61006 14.7911 4.55633 14.1334C4.50117 13.4583 4.5 12.5849 4.5 11.3V8.7C4.5 7.41513 4.50117 6.54169 4.55633 5.86656C4.61006 5.20893 4.70745 4.87263 4.82698 4.63803C5.1146 4.07354 5.57354 3.6146 6.13803 3.32698C6.37263 3.20745 6.70893 3.11006 7.36656 3.05633C8.04169 3.00117 8.91513 3 10.2 3H10.5V4.25V4.28142C10.5 4.9548 10.5 5.5055 10.5366 5.95307C10.5744 6.41633 10.6551 6.83473 10.8542 7.22547C11.1658 7.837 11.663 8.33418 12.2745 8.64577C12.6653 8.84486 13.0837 8.9256 13.5469 8.96345C13.9945 9.00002 14.5452 9.00001 15.2186 9H15.25H16.5V11.3C16.5 12.5849 16.4988 13.4583 16.4437 14.1334C16.3899 14.7911 16.2926 15.1274 16.173 15.362C15.8854 15.9265 15.4265 16.3854 14.862 16.673C14.6274 16.7926 14.2911 16.8899 13.6334 16.9437C12.9583 16.9988 12.0849 17 10.8 17ZM16.37 7.5H15.25C14.5376 7.5 14.0483 7.49942 13.6691 7.46843C13.2986 7.43816 13.0996 7.38265 12.9555 7.30926C12.6262 7.14148 12.3585 6.87377 12.1907 6.54448C12.1173 6.40044 12.0618 6.20142 12.0316 5.83092C12.0006 5.45167 12 4.96244 12 4.25V3.12998C12.0037 3.13335 12.0077 3.13691 12.0118 3.14066C12.0924 3.21421 12.1944 3.31573 12.3766 3.49792L16.0021 7.1234C16.1843 7.30559 16.2858 7.40762 16.3593 7.48822C16.3631 7.49233 16.3666 7.49625 16.37 7.5Z" fill="#959DA5"/>
</svg>
