<svg width="360" height="560" viewBox="0 0 360 560" fill="none" xmlns="http://www.w3.org/2000/svg">
<path fill-rule="evenodd" clip-rule="evenodd" d="M191.793 127.07C166.843 128.25 143.283 135.289 122.135 147.882C102.703 159.452 86.2157 175.139 73.6763 193.989C54.2134 223.245 45.7679 257.966 49.5859 293.028C52.1932 316.971 60.6733 340.062 74.2256 360.122C75.9254 362.638 76.2196 363.174 76.2236 363.764C76.2297 364.665 75.9823 364.895 71.5587 368.105C53.6203 381.122 34.6722 393.187 15.3829 403.878C12.8183 405.299 12.1775 405.764 12.0426 406.302C11.8514 407.064 12.2019 407.481 15.2436 410.108C17.7565 412.278 20.5385 414.829 26.4773 420.407C34.7773 428.204 39.099 432.076 40.0003 432.523C40.2754 432.66 40.6831 432.741 41.0819 432.739C41.8347 432.735 42.3866 432.462 47.7733 429.427C65.6016 419.382 82.3212 408.715 99.0704 396.7C101.106 395.239 102.976 393.94 103.226 393.813C103.851 393.494 104.669 393.51 105.261 393.853C105.517 394.002 107.009 395.09 108.577 396.271C116.02 401.877 122.762 406.071 131.095 410.279C147.525 418.575 165.173 423.719 183.579 425.577C189.069 426.131 191.06 426.218 198.3 426.222C205.145 426.226 206.533 426.176 211.45 425.752C234.696 423.75 257.323 416.187 277.29 403.745C296.807 391.584 313.279 375.069 325.549 355.358C327.396 352.392 327.573 351.96 327.221 351.298C326.887 350.672 326.491 350.573 323.69 350.409C311.379 349.692 299.576 348.605 287.582 347.084C285.323 346.798 283.219 346.563 282.906 346.563C281.731 346.563 281.276 346.893 279.079 349.339C276.9 351.766 272.473 356.141 270.101 358.214C264.032 363.518 257.826 367.906 251.075 371.669C238.053 378.926 223.777 383.397 209.006 384.844C205.029 385.234 202.619 385.349 198.416 385.349C194.205 385.349 191.786 385.233 187.827 384.843C170.909 383.175 154.601 377.678 141.162 369.113C139.402 367.992 138.773 367.492 138.529 367.019C138.302 366.58 138.376 366.014 138.724 365.525C138.863 365.33 140.24 364.061 141.785 362.706C146.535 358.539 152.563 353.057 156.519 349.306C164.513 341.728 174.479 331.67 181.552 324.042C213.2 289.917 240.445 251.887 262.678 210.806C267.917 201.125 273.791 189.379 278.45 179.266C281.259 173.168 285.453 163.565 287.018 159.645C287.864 157.528 287.775 156.877 286.495 155.796C284.986 154.521 279.45 150.814 275.445 148.398C254.805 135.946 232.522 128.959 207.959 127.238C204.924 127.025 194.927 126.921 191.793 127.07ZM206.853 168.202C215.958 168.983 223.976 170.605 232.339 173.355C236.192 174.623 236.807 174.941 237.042 175.792C237.221 176.443 236.976 177.068 235.339 180.139C213.389 221.297 186.584 259.314 155.537 293.319C146.071 303.687 134.963 314.902 124.752 324.399C120.785 328.089 114.745 333.509 111.429 336.356C109.289 338.193 108.649 338.049 106.893 335.338C97.693 321.135 91.8833 304.549 90.1975 287.675C89.779 283.486 89.6734 281.256 89.6734 276.619C89.6734 271.112 89.8686 267.969 90.5446 262.595C92.9164 243.742 100.745 225.087 112.694 209.816C126.305 192.421 144.989 179.436 165.832 172.885C174.69 170.101 182.515 168.695 193.063 167.992C194.853 167.873 204.779 168.023 206.853 168.202ZM306.147 174.939C305.843 175.243 305.405 176.192 304.09 179.391C287.585 219.53 266.475 257.542 241.452 292.176C239.439 294.963 239.282 295.304 239.673 296.059C239.939 296.574 240.56 296.824 243.137 297.45C252.879 299.816 263.911 302.155 274.193 304.032C279.901 305.074 280.271 305.118 280.964 304.854C281.73 304.561 282.197 304.021 283.951 301.4C298.824 279.175 312.993 253.966 324.504 229.252C327.722 222.343 331.819 213.079 332.244 211.749C332.548 210.798 332.363 210.037 331.332 208.006C327.335 200.138 321.506 191.135 315.662 183.805C312.363 179.668 308.272 175.04 307.654 174.746C307.013 174.442 306.59 174.496 306.147 174.939ZM343.389 246.161C343.119 246.431 342.422 247.788 341.041 250.729C332.423 269.084 322.817 286.925 311.725 305.174C310.33 307.468 310.182 307.8 310.235 308.507C310.27 308.97 310.819 309.383 311.598 309.532C312.894 309.782 324.385 310.821 331.72 311.352C339.16 311.89 342.148 312.039 342.673 311.895C343.781 311.593 344.072 311.055 344.702 308.144C346.014 302.075 347.046 295.094 347.54 288.955C347.916 284.272 348.002 281.961 348 276.56C347.998 269.95 347.764 265.686 347.07 259.569C346.551 254.997 345.501 248.506 345.04 247.016C344.654 245.772 344.077 245.473 343.389 246.161Z" fill="white" fill-opacity="0.16"/>
</svg>
