<svg width="134" height="31" viewBox="0 0 134 31" fill="none" xmlns="http://www.w3.org/2000/svg">
<path d="M22.5473 0H9.45273C4.23213 0 0 3.96763 0 8.86194V21.1381C0 26.0324 4.23213 30 9.45273 30H22.5473C27.7679 30 32 26.0324 32 21.1381V8.86194C32 3.96763 27.7679 0 22.5473 0Z" fill="#306CDC"/>
<path d="M32 21.749V20.3405L13.9491 14.5546C13.7637 14.495 13.6012 14.3815 13.4835 14.2292C13.3658 14.077 13.2983 13.8932 13.2901 13.7024C13.2819 13.5117 13.3334 13.323 13.4377 13.1616C13.542 13.0003 13.6941 12.8739 13.8738 12.7993L20.1661 10.1989L22.5869 9.19339C22.9572 9.04525 23.2777 8.79888 23.5125 8.48205C23.7473 8.16522 23.887 7.79052 23.9158 7.40019C23.9158 7.35685 23.9158 7.31351 23.9158 7.27017C23.9057 6.60776 23.6306 5.97563 23.1495 5.50947C22.6401 5.00671 21.9751 4.6829 21.258 4.58849L19.6833 4.36312L3.19823 2C2.66733 2.45881 2.19041 2.97413 1.7763 3.53641L10.9358 5.99163C11.0856 6.03194 11.2182 6.11857 11.3136 6.23858C11.4091 6.3586 11.4623 6.50559 11.4654 6.65763C11.4685 6.80967 11.4214 6.95862 11.3309 7.08228C11.2404 7.20594 11.1116 7.29769 10.9635 7.34384L0 10.7569V19.6665L20.8439 31H22.5504C25.0571 30.9986 27.4606 30.0233 29.2326 28.2885C31.0046 26.5538 32 24.2016 32 21.749Z" fill="#F2F2F8"/>
<path d="M41.0023 12.4533C41.0023 12.8226 41.187 13.1276 41.5565 13.3685C41.926 13.5932 42.4649 13.81 43.1731 14.0187C43.712 14.1472 44.1816 14.2836 44.5819 14.4281C44.9822 14.5726 45.4056 14.7894 45.8521 15.0784C46.2985 15.3513 46.6373 15.7206 46.8682 16.1862C47.1145 16.6358 47.23 17.1656 47.2146 17.7757C47.2146 18.9317 46.7835 19.8389 45.9213 20.4972C45.0591 21.1554 43.9891 21.4846 42.7112 21.4846C41.5719 21.4846 40.5943 21.2357 39.7783 20.738C38.9623 20.2403 38.3695 19.5499 38 18.6668L40.1478 17.3663C40.5327 18.5223 41.3872 19.1003 42.7112 19.1003C44.0199 19.1003 44.6742 18.6508 44.6742 17.7517C44.6742 17.0934 43.9429 16.5796 42.4803 16.2103C41.926 16.0658 41.4564 15.9213 41.0715 15.7768C40.702 15.6323 40.2863 15.4236 39.8244 15.1506C39.378 14.8777 39.0315 14.5164 38.7852 14.0669C38.5543 13.6173 38.4465 13.0955 38.4619 12.5015C38.4619 11.3936 38.8622 10.5025 39.6628 9.8282C40.4788 9.15386 41.4872 8.81669 42.6881 8.81669C43.6427 8.81669 44.4895 9.04147 45.2285 9.49103C45.9829 9.92453 46.5603 10.5346 46.9606 11.3214L44.859 12.5496C44.4741 11.6345 43.7505 11.1769 42.6881 11.1769C42.1955 11.1769 41.7875 11.2893 41.4641 11.514C41.1562 11.7388 41.0023 12.0519 41.0023 12.4533Z" fill="#306CDC"/>
<path d="M58.2593 10.8397V9.12978H60.7535V21.1715H58.2593V19.4375C57.3201 20.8022 55.9729 21.4846 54.2178 21.4846C52.632 21.4846 51.2771 20.8745 50.1532 19.6542C49.0293 18.434 48.4673 16.9328 48.4673 15.1506C48.4673 13.3685 49.0293 11.8673 50.1532 10.647C51.2771 9.42681 52.632 8.81669 54.2178 8.81669C55.9729 8.81669 57.3201 9.49103 58.2593 10.8397ZM52.0007 17.9202C52.6936 18.6427 53.5634 19.004 54.6104 19.004C55.6573 19.004 56.5272 18.6427 57.22 17.9202C57.9129 17.1817 58.2593 16.2585 58.2593 15.1506C58.2593 14.0428 57.9129 13.1276 57.22 12.4051C56.5272 11.6666 55.6573 11.2973 54.6104 11.2973C53.5634 11.2973 52.6936 11.6666 52.0007 12.4051C51.3079 13.1276 50.9615 14.0428 50.9615 15.1506C50.9615 16.2424 51.3079 17.1656 52.0007 17.9202Z" fill="#306CDC"/>
<path d="M70.1039 9.12978V11.6345H67.2402V17.4145C67.2402 17.9122 67.348 18.2735 67.5636 18.4982C67.7791 18.707 68.0947 18.8274 68.5104 18.8595C68.9415 18.8755 69.4727 18.8675 70.1039 18.8354V21.1715C68.1948 21.4123 66.8245 21.2438 65.9931 20.6658C65.1618 20.0717 64.7461 18.9879 64.7461 17.4145V11.6345H62.6214V9.12978H64.7461V6.52876L67.2402 5.75809V9.12978H70.1039Z" fill="#306CDC"/>
<path d="M78.2681 9.12978V11.6345H75.4044V17.4145C75.4044 17.9122 75.5122 18.2735 75.7277 18.4982C75.9433 18.707 76.2589 18.8274 76.6746 18.8595C77.1057 18.8755 77.6369 18.8675 78.2681 18.8354V21.1715C76.359 21.4123 74.9887 21.2438 74.1573 20.6658C73.3259 20.0717 72.9102 18.9879 72.9102 17.4145V11.6345H70.7856V9.12978H72.9102V6.52876L75.4044 5.75809V9.12978H78.2681Z" fill="#306CDC"/>
<path d="M82.8859 6.84185C82.578 7.16296 82.2085 7.32352 81.7774 7.32352C81.3463 7.32352 80.9691 7.16296 80.6457 6.84185C80.3378 6.50468 80.1839 6.11132 80.1839 5.66176C80.1839 5.2122 80.3378 4.82687 80.6457 4.50575C80.9537 4.16858 81.3309 4 81.7774 4C82.2238 4 82.6011 4.16858 82.909 4.50575C83.2169 4.82687 83.3709 5.2122 83.3709 5.66176C83.3709 6.11132 83.2092 6.50468 82.8859 6.84185ZM83.0244 21.1715H80.5303V9.12978H83.0244V21.1715Z" fill="#306CDC"/>
<path d="M102.733 17.4386L104.996 9.12978H107.629L104.003 21.1715H101.555L99.1535 13.0554L96.7286 21.1715H94.2806L90.6548 9.12978H93.2875L95.5277 17.4386L97.9525 9.12978H100.331L102.733 17.4386Z" fill="#306CDC"/>
<path d="M118.16 10.8397V9.12978H120.654V21.1715H118.16V19.4375C117.221 20.8022 115.874 21.4846 114.119 21.4846C112.533 21.4846 111.178 20.8745 110.054 19.6542C108.93 18.434 108.368 16.9328 108.368 15.1506C108.368 13.3685 108.93 11.8673 110.054 10.647C111.178 9.42681 112.533 8.81669 114.119 8.81669C115.874 8.81669 117.221 9.49103 118.16 10.8397ZM111.901 17.9202C112.594 18.6427 113.464 19.004 114.511 19.004C115.558 19.004 116.428 18.6427 117.121 17.9202C117.814 17.1817 118.16 16.2585 118.16 15.1506C118.16 14.0428 117.814 13.1276 117.121 12.4051C116.428 11.6666 115.558 11.2973 114.511 11.2973C113.464 11.2973 112.594 11.6666 111.901 12.4051C111.209 13.1276 110.862 14.0428 110.862 15.1506C110.862 16.2424 111.209 17.1656 111.901 17.9202Z" fill="#306CDC"/>
<path d="M128.388 17.8721L131.344 9.12978H134L129.566 21.5568C128.457 24.6716 126.579 26.1488 123.931 25.9882V23.5558C124.701 23.6039 125.324 23.4353 125.802 23.05C126.279 22.6647 126.679 22.0465 127.002 21.1956L127.118 20.9548L122.222 9.12978H124.947L128.388 17.8721Z" fill="#306CDC"/>
</svg>
