<svg width="50" height="50" viewBox="0 0 50 50" fill="none" xmlns="http://www.w3.org/2000/svg">
<g id="messages-1">
<path id="Combined Shape" fill-rule="evenodd" clip-rule="evenodd" d="M8.90734 42.7838L6.01362 15.703C6.00455 15.6181 6 15.5328 6 15.4474C6 14.0957 7.11483 13 8.49003 13H34.5098C34.5937 13 34.6776 13.0042 34.7611 13.0125C36.1293 13.1489 37.1259 14.3496 36.9871 15.6944L35.5097 30.009C35.0808 33.7846 31.5122 36.6579 27.2517 36.6579H19.6235C18.7012 36.6579 17.822 37.0482 17.2033 37.7323L12.362 43.0854C11.8359 43.6672 11.0818 44 10.2898 44C9.58106 44 8.98562 43.4762 8.90734 42.7838ZM27.5 20H14.5C13.6716 20 13 20.6716 13 21.5C13 22.3284 13.6716 23 14.5 23H27.5C28.3284 23 29 22.3284 29 21.5C29 20.6716 28.3284 20 27.5 20ZM21.5 26H14.5C13.6716 26 13 26.6716 13 27.5C13 28.3284 13.6716 29 14.5 29H21.5C22.3284 29 23 28.3284 23 27.5C23 26.6716 22.3284 26 21.5 26ZM14 10C12.8954 10 12 9.10457 12 8C12 6.89543 12.8954 6 14 6H42C43.1761 6 44.0983 7.00984 43.9918 8.18107L41.9918 30.1811C41.8918 31.2811 40.919 32.0918 39.8189 31.9918C38.7189 31.8918 37.9082 30.919 38.0082 29.8189L39.8099 10H14Z" fill="#787878"/>
</g>
</svg>
