<svg width="40" height="40" viewBox="0 0 40 40" fill="none" xmlns="http://www.w3.org/2000/svg">
<path d="M28 18.4167C28.3824 18.4167 28.6979 18.7028 28.7442 19.0726L28.75 19.1667V19.5245C28.75 20.4271 28.6267 21.0151 28.3274 21.5748C28.0397 22.1129 27.6129 22.5397 27.0748 22.8274C26.566 23.0995 26.0338 23.2261 25.2631 23.2469L25.0245 23.25H24.6667C24.2525 23.25 23.9167 22.9142 23.9167 22.5C23.9167 22.1176 24.2028 21.8021 24.5726 21.7558L24.6667 21.75H25.0245C25.6967 21.75 26.0454 21.6769 26.3674 21.5047C26.6441 21.3567 26.8567 21.1441 27.0047 20.8674C27.1612 20.5747 27.2359 20.2599 27.2482 19.7001L27.25 19.5245V19.1667C27.25 18.7525 27.5858 18.4167 28 18.4167ZM13 18.4167C13.3824 18.4167 13.6979 18.7028 13.7442 19.0726L13.75 19.1667V19.5245C13.75 20.1967 13.8231 20.5454 13.9953 20.8674C14.1433 21.1441 14.3559 21.3567 14.6326 21.5047C14.9253 21.6612 15.2401 21.7359 15.7999 21.7482L15.9755 21.75H16.3333C16.7475 21.75 17.0833 22.0858 17.0833 22.5C17.0833 22.8824 16.7972 23.1979 16.4274 23.2442L16.3333 23.25H15.9755C15.0729 23.25 14.4849 23.1267 13.9252 22.8274C13.3871 22.5397 12.9603 22.1129 12.6726 21.5748C12.4005 21.066 12.2739 20.5338 12.2531 19.7631L12.25 19.5245V19.1667C12.25 18.7525 12.5858 18.4167 13 18.4167ZM24.6667 16.1667C25.049 16.1667 25.3645 16.4528 25.4108 16.8226L25.4167 16.9167V17.2367C25.4167 17.8243 25.3219 18.263 25.1054 18.6677C24.8903 19.07 24.57 19.3903 24.1677 19.6054C23.8136 19.7948 23.4335 19.8911 22.9503 19.9122L22.7367 19.9167H18.2633C17.6757 19.9167 17.237 19.8219 16.8323 19.6054C16.43 19.3903 16.1097 19.07 15.8946 18.6677C15.7052 18.3136 15.6089 17.9335 15.5878 17.4503L15.5833 17.2367V16.9167C15.5833 16.5025 15.9191 16.1667 16.3333 16.1667C16.7157 16.1667 17.0312 16.4528 17.0775 16.8226L17.0833 16.9167V17.2367C17.0833 17.5919 17.1261 17.7898 17.2173 17.9603C17.2927 18.1012 17.3988 18.2073 17.5397 18.2827C17.6858 18.3609 17.8521 18.4035 18.1203 18.414L18.2633 18.4167H22.7367C23.0919 18.4167 23.2898 18.3739 23.4603 18.2827C23.6012 18.2073 23.7073 18.1012 23.7827 17.9603C23.8609 17.8142 23.9035 17.6479 23.914 17.3797L23.9167 17.2367V16.9167C23.9167 16.5025 24.2525 16.1667 24.6667 16.1667ZM22.5301 10.0833C23.3207 10.0833 23.7356 10.1635 24.1677 10.3946C24.57 10.6097 24.8903 10.93 25.1054 11.3323C25.3173 11.7284 25.4023 12.1101 25.415 12.7799L25.4167 12.9699L25.4158 13.4158L27.25 13.4167C27.6642 13.4167 28 13.7525 28 14.1667C28 14.5809 27.6642 14.9167 27.25 14.9167H13.75C13.3358 14.9167 13 14.5809 13 14.1667C13 13.7525 13.3358 13.4167 13.75 13.4167L15.5825 13.4158L15.5833 12.9699C15.5833 12.1793 15.6635 11.7644 15.8946 11.3323C16.1097 10.93 16.43 10.6097 16.8323 10.3946C17.2284 10.1827 17.6101 10.0977 18.2799 10.085L18.4699 10.0833H22.5301ZM22.5301 11.5833H18.4699C17.9058 11.5833 17.7248 11.6183 17.5397 11.7173C17.3988 11.7927 17.2927 11.8988 17.2173 12.0397C17.1373 12.1893 17.0991 12.3362 17.0874 12.6847L17.0833 12.9699L17.0825 13.4158H23.9158L23.9167 12.9699L23.913 12.6979C23.9018 12.3398 23.8637 12.1912 23.7827 12.0397C23.7073 11.8988 23.6012 11.7927 23.4603 11.7173C23.3107 11.6373 23.1638 11.5991 22.8153 11.5874L22.5301 11.5833ZM16.3324 6.75C16.7466 6.75 17.0824 7.08579 17.0824 7.5C17.0824 7.88235 16.7963 8.19788 16.4265 8.24416L16.3324 8.25H15.9751C15.3033 8.25 14.9545 8.32312 14.6326 8.49528C14.3559 8.64326 14.1433 8.85594 13.9953 9.13264C13.8388 9.42528 13.7641 9.74013 13.7518 10.2997L13.75 10.8333C13.75 11.2475 13.4142 11.5833 13 11.5833C12.6176 11.5833 12.3021 11.2972 12.2558 10.9274L12.25 10.8333V10.4751C12.25 9.5729 12.3733 8.98483 12.6726 8.42524C12.9603 7.88714 13.3871 7.46034 13.9252 7.17256C14.434 6.90049 14.9662 6.77387 15.7366 6.7531L15.9751 6.75H16.3324ZM25.0245 6.75C25.9271 6.75 26.5151 6.87326 27.0748 7.17256C27.6129 7.46034 28.0397 7.88714 28.3274 8.42524C28.5995 8.934 28.7261 9.46622 28.7469 10.2369L28.75 10.4755V10.8333C28.75 11.2475 28.4142 11.5833 28 11.5833C27.6176 11.5833 27.3021 11.2972 27.2558 10.9274L27.25 10.8333V10.4755C27.25 9.80332 27.1769 9.45458 27.0047 9.13264C26.8567 8.85594 26.6441 8.64326 26.3674 8.49528C26.0747 8.33876 25.7599 8.26411 25.2001 8.25183L24.6667 8.25C24.2525 8.25 23.9167 7.91421 23.9167 7.5C23.9167 7.11765 24.2028 6.80212 24.5726 6.75584L24.6667 6.75H25.0245Z" fill="#18AA13"/>
<path d="M10.9805 32.1562L12.5195 33.375L11.7812 34.0156L10.2656 32.7969L10.9805 32.1562ZM12.5586 30.0234V30.293C12.5586 30.7253 12.5 31.1133 12.3828 31.457C12.2682 31.8008 12.1029 32.0938 11.8867 32.3359C11.6706 32.5755 11.4154 32.7591 11.1211 32.8867C10.8268 33.0143 10.5 33.0781 10.1406 33.0781C9.78385 33.0781 9.45703 33.0143 9.16016 32.8867C8.86328 32.7591 8.60677 32.5755 8.39062 32.3359C8.17448 32.0938 8.00651 31.8008 7.88672 31.457C7.76953 31.1133 7.71094 30.7253 7.71094 30.293V30.0234C7.71094 29.5885 7.76953 29.2005 7.88672 28.8594C8.00651 28.5156 8.17318 28.2227 8.38672 27.9805C8.60026 27.7383 8.85547 27.5534 9.15234 27.4258C9.44922 27.2982 9.77604 27.2344 10.1328 27.2344C10.4922 27.2344 10.819 27.2982 11.1133 27.4258C11.4102 27.5534 11.6667 27.7383 11.8828 27.9805C12.099 28.2227 12.2656 28.5156 12.3828 28.8594C12.5 29.2005 12.5586 29.5885 12.5586 30.0234ZM11.375 30.293V30.0156C11.375 29.7135 11.3464 29.4479 11.2891 29.2188C11.2344 28.9896 11.1536 28.7969 11.0469 28.6406C10.9427 28.4844 10.8138 28.3672 10.6602 28.2891C10.5065 28.2083 10.3307 28.168 10.1328 28.168C9.9349 28.168 9.75911 28.2083 9.60547 28.2891C9.45182 28.3672 9.32292 28.4844 9.21875 28.6406C9.11458 28.7969 9.03516 28.9896 8.98047 29.2188C8.92578 29.4479 8.89844 29.7135 8.89844 30.0156V30.293C8.89844 30.5924 8.92578 30.8581 8.98047 31.0898C9.03516 31.319 9.11458 31.513 9.21875 31.6719C9.32552 31.8281 9.45573 31.9466 9.60938 32.0273C9.76562 32.1081 9.94271 32.1484 10.1406 32.1484C10.3385 32.1484 10.513 32.1081 10.6641 32.0273C10.8177 31.9466 10.9466 31.8281 11.0508 31.6719C11.1576 31.513 11.2383 31.319 11.293 31.0898C11.3477 30.8581 11.375 30.5924 11.375 30.293ZM13.4062 27.3125H15.5273C15.9622 27.3125 16.3359 27.3776 16.6484 27.5078C16.9635 27.638 17.2057 27.8307 17.375 28.0859C17.5443 28.3411 17.6289 28.6549 17.6289 29.0273C17.6289 29.332 17.5768 29.5938 17.4727 29.8125C17.3711 30.0286 17.2266 30.2096 17.0391 30.3555C16.8542 30.4987 16.6367 30.6133 16.3867 30.6992L16.0156 30.8945H14.1719L14.1641 29.9805H15.5352C15.7409 29.9805 15.9115 29.944 16.0469 29.8711C16.1823 29.7982 16.2839 29.6966 16.3516 29.5664C16.4219 29.4362 16.457 29.2852 16.457 29.1133C16.457 28.931 16.4232 28.7734 16.3555 28.6406C16.2878 28.5078 16.1849 28.4062 16.0469 28.3359C15.9089 28.2656 15.7357 28.2305 15.5273 28.2305H14.5781V33H13.4062V27.3125ZM16.5859 33L15.2891 30.4648L16.5273 30.457L17.8398 32.9453V33H16.5859ZM21.6523 28.7734V33H20.5273V28.7734H21.6523ZM24.3984 28.7734L22.5781 31.418H21.4531L21.3164 30.3789H22.0625L22.9727 28.7734H24.3984ZM23.0234 33L21.9844 31.2148L22.9648 30.6719L24.5312 33H23.0234ZM24.5938 30.9297V30.8477C24.5938 30.5378 24.638 30.2526 24.7266 29.9922C24.8151 29.7292 24.944 29.5013 25.1133 29.3086C25.2826 29.1159 25.4909 28.9661 25.7383 28.8594C25.9857 28.75 26.2695 28.6953 26.5898 28.6953C26.9102 28.6953 27.1953 28.75 27.4453 28.8594C27.6953 28.9661 27.9049 29.1159 28.0742 29.3086C28.2461 29.5013 28.3763 29.7292 28.4648 29.9922C28.5534 30.2526 28.5977 30.5378 28.5977 30.8477V30.9297C28.5977 31.237 28.5534 31.5221 28.4648 31.7852C28.3763 32.0456 28.2461 32.2734 28.0742 32.4688C27.9049 32.6615 27.6966 32.8112 27.4492 32.918C27.2018 33.0247 26.918 33.0781 26.5977 33.0781C26.2773 33.0781 25.9922 33.0247 25.7422 32.918C25.4948 32.8112 25.2852 32.6615 25.1133 32.4688C24.944 32.2734 24.8151 32.0456 24.7266 31.7852C24.638 31.5221 24.5938 31.237 24.5938 30.9297ZM25.7188 30.8477V30.9297C25.7188 31.1068 25.7344 31.2721 25.7656 31.4258C25.7969 31.5794 25.8464 31.7148 25.9141 31.832C25.9844 31.9466 26.0755 32.0365 26.1875 32.1016C26.2995 32.1667 26.4362 32.1992 26.5977 32.1992C26.7539 32.1992 26.888 32.1667 27 32.1016C27.112 32.0365 27.2018 31.9466 27.2695 31.832C27.3372 31.7148 27.3867 31.5794 27.418 31.4258C27.4518 31.2721 27.4688 31.1068 27.4688 30.9297V30.8477C27.4688 30.6758 27.4518 30.5143 27.418 30.3633C27.3867 30.2096 27.3359 30.0742 27.2656 29.957C27.1979 29.8372 27.1081 29.7435 26.9961 29.6758C26.8841 29.6081 26.7487 29.5742 26.5898 29.5742C26.431 29.5742 26.2956 29.6081 26.1836 29.6758C26.0742 29.7435 25.9844 29.8372 25.9141 29.957C25.8464 30.0742 25.7969 30.2096 25.7656 30.3633C25.7344 30.5143 25.7188 30.6758 25.7188 30.8477ZM29.7695 28.7734H30.8945L30.8594 30.1875C30.849 30.6406 30.7969 31.0299 30.7031 31.3555C30.6094 31.681 30.4844 31.9544 30.3281 32.1758C30.1719 32.3971 29.9935 32.5742 29.793 32.707C29.5951 32.8372 29.3867 32.9349 29.168 33H28.957L28.9453 32.1328L29.0625 32.1211C29.1953 31.9831 29.3047 31.849 29.3906 31.7188C29.4766 31.5859 29.543 31.4466 29.5898 31.3008C29.6367 31.1549 29.6706 30.9922 29.6914 30.8125C29.7148 30.6328 29.7292 30.4245 29.7344 30.1875L29.7695 28.7734ZM30.0742 28.7734H32.875V33H31.7539V29.6758H30.0742V28.7734ZM28.6992 32.1211H33.4805V34.2695H32.3555V33H29.8516V34.2695H28.6992V32.1211Z" fill="#1A261E"/>
<rect x="1" y="1" width="38" height="38" rx="7" stroke="#2DA44E" stroke-width="2"/>
</svg>
