<svg width="24" height="24" viewBox="0 0 24 24" fill="none" xmlns="http://www.w3.org/2000/svg">
<path d="M9.50928 18.0027V18.5149C9.50928 19.1754 9.77179 19.8088 10.239 20.2756C10.7062 20.7425 11.3398 21.0045 12.0003 21.0039V21.0039C12.6609 21.0042 13.2945 20.742 13.7617 20.275C14.2289 19.808 14.4914 19.1745 14.4914 18.5139V18.0027" stroke="#306CDC" stroke-width="1.5" stroke-linecap="round" stroke-linejoin="round"/>
<path fill-rule="evenodd" clip-rule="evenodd" d="M17.9494 18.0026C19.0837 18.0026 20.0032 17.083 20.0032 15.9487V15.9487C20.0028 15.3725 19.774 14.82 19.367 14.4121L18.0024 13.0485V8.99884C18.0024 5.68375 15.315 2.99634 11.9999 2.99634V2.99634C8.68483 2.99634 5.99742 5.68375 5.99742 8.99884V13.0485L4.63285 14.4121C4.22583 14.82 3.99704 15.3725 3.99658 15.9487V15.9487C3.99658 16.4934 4.21297 17.0159 4.59814 17.401C4.98331 17.7862 5.50572 18.0026 6.05044 18.0026H17.9494Z" stroke="#306CDC" stroke-width="1.5" stroke-linecap="round" stroke-linejoin="round"/>
</svg>
