<svg width="20" height="20" viewBox="0 0 20 20" fill="none" xmlns="http://www.w3.org/2000/svg">
<path d="M11.6658 4.16667C11.6667 3.24583 9.80001 2.5 7.50001 2.5C5.20001 2.5 3.33501 3.24667 3.33334 4.16667C3.33334 5.0875 5.19834 5.83333 7.50001 5.83333C9.80168 5.83333 11.6667 5.0875 11.6667 4.16667" stroke="#22863A" stroke-width="1.5" stroke-linecap="round" stroke-linejoin="round"/>
<path d="M11.6667 4.16675V10.6334" stroke="#22863A" stroke-width="1.5" stroke-linecap="round" stroke-linejoin="round"/>
<path d="M3.33417 7.5C3.33417 8.42083 5.19917 9.16667 7.50083 9.16667C9.8025 9.16667 11.6675 8.42083 11.6675 7.5" stroke="#22863A" stroke-width="1.5" stroke-linecap="round" stroke-linejoin="round"/>
<path d="M16.4017 11.0984C17.8658 12.5625 17.8658 14.9375 16.4017 16.4017C14.9375 17.8659 12.5625 17.8659 11.0983 16.4017C9.63417 14.9375 9.63417 12.5625 11.0983 11.0984C12.5625 9.6342 14.9375 9.6342 16.4017 11.0984" stroke="#22863A" stroke-width="1.5" stroke-linecap="round" stroke-linejoin="round"/>
<path d="M10.4208 12.0208C9.66917 12.3166 8.63833 12.4999 7.5 12.4999C5.19917 12.4999 3.33417 11.7541 3.33417 10.8333" stroke="#22863A" stroke-width="1.5" stroke-linecap="round" stroke-linejoin="round"/>
<path d="M10.3708 15.3701C9.62334 15.6559 8.61584 15.8334 7.50001 15.8334C5.19918 15.8334 3.33418 15.0876 3.33334 14.1667V4.16675" stroke="#22863A" stroke-width="1.5" stroke-linecap="round" stroke-linejoin="round"/>
</svg>
