<svg width="12" height="12" viewBox="0 0 12 12" fill="none" xmlns="http://www.w3.org/2000/svg">
<path d="M2.99892 6.5769C2.08003 6.98908 1.49829 7.58532 1.49829 8.2511C1.49829 9.49412 3.51363 10.502 6.00017 10.502C8.4867 10.502 10.502 9.49412 10.502 8.2511C10.502 7.58532 9.9203 6.98908 9.00142 6.5769" stroke="#707070" stroke-linecap="round" stroke-linejoin="round"/>
<path d="M7.82686 8.50122C7.2848 8.85393 6.64623 9.02879 6.0001 9.00143C5.35397 9.02879 4.7154 8.85393 4.17334 8.50122" stroke="#707070" stroke-linecap="round" stroke-linejoin="round"/>
<path d="M7.10062 1.95489C7.54655 2.4008 7.67996 3.07142 7.43863 3.65405C7.19731 4.23667 6.62878 4.61655 5.99816 4.61655C5.36754 4.61655 4.79901 4.23667 4.55769 3.65405C4.31636 3.07142 4.44977 2.4008 4.8957 1.95489C5.18803 1.66239 5.58462 1.49805 5.99816 1.49805C6.4117 1.49805 6.80829 1.66239 7.10062 1.95489" stroke="#707070" stroke-linecap="round" stroke-linejoin="round"/>
<path d="M6.0001 4.61548V7.50068" stroke="#707070" stroke-linecap="round" stroke-linejoin="round"/>
</svg>
