<svg width="24" height="24" viewBox="0 0 24 24" fill="none" xmlns="http://www.w3.org/2000/svg">
<path d="M12 13.5006V12C13.105 12 14.0008 11.1042 14.0008 9.99912C14.0008 8.89409 13.105 7.99829 12 7.99829C10.895 7.99829 9.99916 8.89409 9.99916 9.99912" stroke="#ACACAC" stroke-width="1.5" stroke-linecap="round" stroke-linejoin="round"/>
<path fill-rule="evenodd" clip-rule="evenodd" d="M12 21.0037C16.9726 21.0037 21.0037 16.9726 21.0037 12C21.0037 7.02733 16.9726 2.99622 12 2.99622C7.02736 2.99622 2.99625 7.02733 2.99625 12C2.99625 16.9726 7.02736 21.0037 12 21.0037Z" stroke="#ACACAC" stroke-width="1.5" stroke-linecap="round" stroke-linejoin="round"/>
<path d="M12 15.9517C11.9724 15.9517 11.95 15.974 11.95 16.0017C11.95 16.0293 11.9724 16.0517 12 16.0517C12.0276 16.0517 12.05 16.0293 12.05 16.0017C12.05 15.974 12.0276 15.9517 12 15.9517" stroke="#ACACAC" stroke-width="1.5" stroke-linecap="round" stroke-linejoin="round"/>
</svg>
