<svg width="24" height="24" viewBox="0 0 24 24" fill="none" xmlns="http://www.w3.org/2000/svg">
<path d="M9.70427 6.45572C12.7668 5.18769 16.2774 6.64204 17.546 9.70432C18.8146 12.7666 17.3609 16.2775 14.2989 17.5467C11.2368 18.8159 7.72565 17.3628 6.45591 14.301C5.84586 12.8299 5.84541 11.1767 6.45464 9.70533C7.06388 8.23394 8.23287 7.06495 9.70427 6.45572" stroke="#306CDC" stroke-width="1.5" stroke-linecap="round" stroke-linejoin="round"/>
<path d="M11.812 9.32178V12.4231L14.25 13.9097" stroke="#306CDC" stroke-width="1.5" stroke-linecap="round" stroke-linejoin="round"/>
<path d="M12 2.99658C16.9726 2.99658 21.0037 7.0277 21.0037 12.0003C21.0037 16.973 16.9726 21.0041 12 21.0041" stroke="#306CDC" stroke-width="1.5" stroke-linecap="round" stroke-linejoin="round"/>
<path d="M8.92397 20.4527C7.93704 20.0953 7.02019 19.5682 6.21484 18.895" stroke="#306CDC" stroke-width="1.5" stroke-linecap="round" stroke-linejoin="round"/>
<path d="M6.21484 5.10501C7.0197 4.43116 7.93668 3.90393 8.92397 3.54736" stroke="#306CDC" stroke-width="1.5" stroke-linecap="round" stroke-linejoin="round"/>
<path d="M3.14062 10.4373C3.3214 9.40253 3.68271 8.40764 4.20807 7.49805" stroke="#306CDC" stroke-width="1.5" stroke-linecap="round" stroke-linejoin="round"/>
<path d="M3.14062 13.5615C3.32128 14.5966 3.6826 15.5918 4.20807 16.5017" stroke="#306CDC" stroke-width="1.5" stroke-linecap="round" stroke-linejoin="round"/>
</svg>
