<svg width="80" height="80" viewBox="0 0 80 80" fill="none" xmlns="http://www.w3.org/2000/svg">
<path d="M49 44.1C49.4588 44.1 49.8375 44.4433 49.893 44.8871L49.9 45V45.4294C49.9 46.5125 49.7521 47.2181 49.3929 47.8897C49.0476 48.5354 48.5354 49.0476 47.8897 49.3929C47.2792 49.7194 46.6405 49.8714 45.7157 49.8963L45.4294 49.9H45C44.5029 49.9 44.1 49.4971 44.1 49C44.1 48.5412 44.4433 48.1625 44.8871 48.107L45 48.1H45.4294C46.236 48.1 46.6545 48.0123 47.0408 47.8057C47.3729 47.6281 47.6281 47.3729 47.8057 47.0408C47.9935 46.6896 48.0831 46.3118 48.0978 45.6401L48.1 45.4294V45C48.1 44.5029 48.5029 44.1 49 44.1ZM31 44.1C31.4588 44.1 31.8375 44.4433 31.893 44.8871L31.9 45V45.4294C31.9 46.236 31.9877 46.6545 32.1943 47.0408C32.3719 47.3729 32.6271 47.6281 32.9592 47.8057C33.3104 47.9935 33.6882 48.0831 34.3599 48.0978L34.5706 48.1H35C35.4971 48.1 35.9 48.5029 35.9 49C35.9 49.4588 35.5567 49.8375 35.1129 49.893L35 49.9H34.5706C33.4875 49.9 32.7819 49.7521 32.1103 49.3929C31.4646 49.0476 30.9524 48.5354 30.6071 47.8897C30.2806 47.2792 30.1286 46.6405 30.1037 45.7157L30.1 45.4294V45C30.1 44.5029 30.5029 44.1 31 44.1ZM45 41.4C45.4588 41.4 45.8375 41.7433 45.893 42.1871L45.9 42.3V42.684C45.9 43.3892 45.7862 43.9156 45.5265 44.4013C45.2683 44.8841 44.8841 45.2683 44.4013 45.5265C43.9763 45.7538 43.5202 45.8693 42.9404 45.8946L42.684 45.9H37.316C36.6108 45.9 36.0844 45.7862 35.5987 45.5265C35.1159 45.2683 34.7317 44.8841 34.4735 44.4013C34.2462 43.9763 34.1307 43.5202 34.1054 42.9404L34.1 42.684V42.3C34.1 41.8029 34.5029 41.4 35 41.4C35.4588 41.4 35.8375 41.7433 35.893 42.1871L35.9 42.3V42.684C35.9 43.1102 35.9513 43.3478 36.0608 43.5524C36.1512 43.7215 36.2785 43.8488 36.4476 43.9392C36.623 44.033 36.8226 44.0841 37.1444 44.0968L37.316 44.1H42.684C43.1102 44.1 43.3478 44.0487 43.5524 43.9392C43.7215 43.8488 43.8488 43.7215 43.9392 43.5524C44.033 43.377 44.0841 43.1774 44.0968 42.8556L44.1 42.684V42.3C44.1 41.8029 44.5029 41.4 45 41.4ZM42.4361 34.1C43.3848 34.1 43.8827 34.1961 44.4013 34.4735C44.8841 34.7317 45.2683 35.1159 45.5265 35.5987C45.7807 36.0741 45.8827 36.5321 45.8979 37.3358L45.9 37.5639L45.899 38.099L48.1 38.1C48.5971 38.1 49 38.5029 49 39C49 39.4971 48.5971 39.9 48.1 39.9H31.9C31.4029 39.9 31 39.4971 31 39C31 38.5029 31.4029 38.1 31.9 38.1L34.099 38.099L34.1 37.5639C34.1 36.6152 34.1961 36.1173 34.4735 35.5987C34.7317 35.1159 35.1159 34.7317 35.5987 34.4735C36.0741 34.2193 36.5321 34.1173 37.3358 34.1021L37.5639 34.1H42.4361ZM42.4361 35.9H37.5639C36.8869 35.9 36.6698 35.9419 36.4476 36.0608C36.2785 36.1512 36.1512 36.2785 36.0608 36.4476C35.9647 36.6271 35.9189 36.8034 35.9049 37.2216L35.9 37.5639L35.899 38.099H44.099L44.1 37.5639L44.0956 37.2374C44.0822 36.8078 44.0365 36.6294 43.9392 36.4476C43.8488 36.2785 43.7215 36.1512 43.5524 36.0608C43.3729 35.9647 43.1966 35.9189 42.7784 35.9049L42.4361 35.9ZM34.9989 30.1C35.4959 30.1 35.8989 30.5029 35.8989 31C35.8989 31.4588 35.5556 31.8375 35.1118 31.893L34.9989 31.9H34.5701C33.764 31.9 33.3455 31.9877 32.9592 32.1943C32.6271 32.3719 32.3719 32.6271 32.1943 32.9592C32.0065 33.3103 31.9169 33.6882 31.9022 34.3596L31.9 35C31.9 35.4971 31.4971 35.9 31 35.9C30.5412 35.9 30.1625 35.5567 30.107 35.1129L30.1 35V34.5701C30.1 33.4875 30.2479 32.7818 30.6071 32.1103C30.9524 31.4646 31.4646 30.9524 32.1103 30.6071C32.7207 30.2806 33.3595 30.1286 34.2839 30.1037L34.5701 30.1H34.9989ZM45.4294 30.1C46.5125 30.1 47.2181 30.2479 47.8897 30.6071C48.5354 30.9524 49.0476 31.4646 49.3929 32.1103C49.7194 32.7208 49.8714 33.3595 49.8963 34.2843L49.9 34.5706V35C49.9 35.4971 49.4971 35.9 49 35.9C48.5412 35.9 48.1625 35.5567 48.107 35.1129L48.1 35V34.5706C48.1 33.764 48.0123 33.3455 47.8057 32.9592C47.6281 32.6271 47.3729 32.3719 47.0408 32.1943C46.6896 32.0065 46.3118 31.9169 45.6401 31.9022L45 31.9C44.5029 31.9 44.1 31.4971 44.1 31C44.1 30.5412 44.4433 30.1625 44.8871 30.107L45 30.1H45.4294Z" fill="white"/>
<path d="M15.5419 50.9116C14.9368 49.5401 13.7234 48.8587 12.4495 49.1646L12.4405 49.1685L12.7993 49.9816L12.8121 49.9866C13.6424 49.8604 14.4041 50.3409 14.8003 51.2388C15.3483 52.4807 14.6772 53.7055 13.0645 54.417L13.0555 54.421C11.4428 55.1325 10.0813 54.8046 9.53534 53.5672C9.14309 52.6782 9.36222 51.7596 10.0941 51.1805L10.101 51.1721L9.74426 50.3635L9.73335 50.363C8.58067 51.1011 8.19456 52.5363 8.79377 53.8944C9.56643 55.6455 11.3429 56.164 13.4202 55.2474L13.4291 55.2435C15.5019 54.3289 16.3145 52.6628 15.5419 50.9116Z" fill="white"/>
<path d="M10.6148 40.8061L13.0253 38.7608L13.0322 37.6719L10.2334 40.1152L7.76801 37.7313L7.76154 38.7518L9.95073 40.8019L9.94902 41.0704L7.74692 41.0564L7.74153 41.906L13.0051 41.9394L13.0105 41.0898L10.6131 41.0746L10.6148 40.8061Z" fill="white"/>
<path d="M14.8773 30.3586C15.1485 29.7046 15.0757 29.0771 14.6841 28.5553L14.7141 28.4832L15.4312 28.7805L15.7566 27.9957L12.4279 26.6155C11.4176 26.1966 10.5338 26.6071 10.0419 27.7934C9.61175 28.8308 9.81922 29.7837 10.5291 30.2261L10.5543 30.2418L10.8797 29.457L10.8681 29.4469C10.5416 29.1635 10.484 28.6903 10.7253 28.1085C11.0264 27.3823 11.5026 27.1516 12.1025 27.4003L12.5445 27.5836L12.0523 29.0129C11.6506 30.173 11.8857 31.0211 12.7517 31.3802L12.7607 31.3839C13.6447 31.7505 14.4939 31.2833 14.8773 30.3586ZM13.0756 30.5736L13.0665 30.5699C12.5839 30.3698 12.457 29.9365 12.7186 29.1781L13.176 27.8454L13.618 28.0287C14.3126 28.3167 14.5946 29.1155 14.2636 29.9139C14.0298 30.4777 13.5672 30.7775 13.0756 30.5736Z" fill="white"/>
<path d="M21.6829 20.151L22.2803 19.5469L18.5375 15.8459L17.9401 16.45L19.4886 17.9812L17.6553 19.8353L16.1068 18.3041L15.5094 18.9082L19.2522 22.6092L19.8496 22.0051L18.1552 20.3297L19.9886 18.4756L21.6829 20.151Z" fill="white"/>
<path d="M27.2702 16.0878L28.057 15.7674L28.9868 11.1499L29.0591 11.1205L30.5397 14.7563L31.3266 14.4359L29.3414 9.56095L28.5545 9.88138L27.6248 14.4988L27.5524 14.5283L26.0718 10.8924L25.285 11.2128L27.2702 16.0878Z" fill="white"/>
<path d="M38.086 14.7801L38.935 14.8099L39.026 12.2236L39.1041 12.2264C39.3723 12.7977 39.989 13.1809 40.7113 13.2063C42.0483 13.2534 42.9545 12.2152 43.0125 10.5659L43.0129 10.5561C43.0705 8.91649 42.235 7.80733 40.9028 7.76048C40.1708 7.73474 39.5731 8.06061 39.2304 8.63486L39.1523 8.63211L39.1818 7.79278L38.3328 7.76292L38.086 14.7801ZM40.5425 12.448C39.5861 12.4143 39.0269 11.6423 39.0696 10.4272L39.07 10.4174C39.1127 9.20236 39.7247 8.47147 40.6812 8.5051C41.6425 8.53891 42.1873 9.30072 42.1443 10.5256L42.1439 10.5353C42.1008 11.7601 41.5038 12.4818 40.5425 12.448Z" fill="white"/>
<path d="M51.2219 15.7193C52.5671 16.3808 53.8564 15.8613 54.5998 14.3496L54.6041 14.3408C55.3496 12.8248 54.9717 11.4908 53.6265 10.8293C52.2814 10.1678 50.9942 10.683 50.2487 12.199L50.2444 12.2078C49.501 13.7195 49.8767 15.0578 51.2219 15.7193ZM51.5537 15.0445C50.6599 14.6049 50.477 13.7043 51.0243 12.5913L51.0286 12.5826C51.5781 11.4653 52.4009 11.0646 53.2947 11.5041C54.1886 11.9437 54.3736 12.84 53.8241 13.9573L53.8198 13.9661C53.2725 15.079 52.4476 15.4841 51.5537 15.0445Z" fill="white"/>
<path d="M58.8196 20.8148L60.2796 22.5152C61.0176 23.3747 61.9053 23.4942 62.5981 22.8994L62.6055 22.893C63.0686 22.4954 63.1475 21.8677 62.7821 21.2998L62.8414 21.2489C63.2404 21.5562 63.8532 21.5128 64.2495 21.1725L64.257 21.1661C64.883 20.6286 64.9157 19.8346 64.2669 19.0789L62.8132 17.3859L58.8196 20.8148ZM61.6774 19.4809L62.8332 18.4885L63.6539 19.4443C64.0387 19.8926 63.9808 20.2898 63.64 20.5825L63.6326 20.5888C63.2547 20.9133 62.8543 20.8516 62.409 20.333L61.6774 19.4809ZM59.9066 21.0014L61.1439 19.939L61.9232 20.8466C62.4162 21.4208 62.4759 21.8651 62.0536 22.2277L62.0462 22.2341C61.6461 22.5776 61.2107 22.5203 60.7908 22.0312L59.9066 21.0014Z" fill="white"/>
<path d="M65.0064 30.7818C65.231 31.4532 65.6977 31.8789 66.3356 32.0157L66.3603 32.0898L65.6241 32.3361L65.8935 33.1418L69.311 31.9989C70.3483 31.652 70.7457 30.7622 70.3384 29.5443C69.9822 28.4792 69.2003 27.8964 68.3744 28.0284L68.3451 28.0331L68.6145 28.8388L68.63 28.8388C69.0623 28.8384 69.4162 29.1577 69.616 29.755C69.8654 30.5006 69.6574 30.9871 69.0415 31.1931L68.5877 31.3449L68.0212 29.9434C67.563 28.8044 66.8291 28.3187 65.94 28.6161L65.9307 28.6192C65.0231 28.9227 64.6889 29.8325 65.0064 30.7818ZM66.2249 29.4372L66.2342 29.4341C66.7296 29.2684 67.1097 29.512 67.41 30.256L67.9394 31.5617L67.4856 31.7135C66.7725 31.952 66.0355 31.5343 65.7614 30.7146C65.5678 30.1358 65.7201 29.606 66.2249 29.4372Z" fill="white"/>
<path d="M71.7999 43.6423L72.0721 39.3932L71.3704 39.3483L71.2615 41.0489L66.7103 40.7573L66.656 41.6052L71.2072 41.8967L71.0982 43.5974L71.7999 43.6423Z" fill="white"/>
<path d="M64.9698 49.6889L64.1509 51.3811C63.6256 52.4667 63.9137 53.4632 64.8938 53.9375L64.9026 53.9417C65.8828 54.416 66.8429 54.0236 67.3683 52.9379L67.817 52.0105L69.3378 52.7464L69.7079 51.9817L64.9698 49.6889ZM66.7353 52.6317C66.4355 53.2514 65.8617 53.4619 65.2727 53.1769L65.2639 53.1727C64.6793 52.8898 64.4818 52.3115 64.7839 51.6873L65.2326 50.7599L67.1841 51.7043L66.7353 52.6317Z" fill="white"/>
</svg>
