<svg width="21" height="20" viewBox="0 0 21 20" fill="none" xmlns="http://www.w3.org/2000/svg">
<path d="M19.5 14.1001C19.9588 14.1001 20.3375 14.4434 20.393 14.8872L20.4 15.0001V15.4295C20.4 16.5126 20.2521 17.2182 19.8929 17.8898C19.5476 18.5355 19.0354 19.0477 18.3897 19.393C17.7792 19.7195 17.1405 19.8715 16.2157 19.8964L15.9294 19.9001H15.5C15.0029 19.9001 14.6 19.4972 14.6 19.0001C14.6 18.5413 14.9433 18.1626 15.3871 18.1071L15.5 18.1001H15.9294C16.736 18.1001 17.1545 18.0124 17.5408 17.8058C17.8729 17.6282 18.1281 17.373 18.3057 17.0409C18.4935 16.6897 18.5831 16.3119 18.5978 15.6402L18.6 15.4295V15.0001C18.6 14.503 19.0029 14.1001 19.5 14.1001ZM1.5 14.1001C1.95882 14.1001 2.33745 14.4434 2.39299 14.8872L2.4 15.0001V15.4295C2.4 16.2361 2.48773 16.6546 2.69433 17.0409C2.87191 17.373 3.12712 17.6282 3.45917 17.8058C3.81037 17.9936 4.18816 18.0832 4.85994 18.0979L5.07055 18.1001H5.5C5.99706 18.1001 6.4 18.503 6.4 19.0001C6.4 19.4589 6.05666 19.8375 5.61289 19.8931L5.5 19.9001H5.07055C3.98748 19.9001 3.28185 19.7522 2.61029 19.393C1.96456 19.0477 1.45241 18.5355 1.10707 17.8898C0.780565 17.2793 0.62864 16.6406 0.603715 15.7158L0.6 15.4295V15.0001C0.6 14.503 1.00294 14.1001 1.5 14.1001ZM15.5 11.4001C15.9588 11.4001 16.3375 11.7434 16.393 12.1872L16.4 12.3001V12.6841C16.4 13.3893 16.2862 13.9157 16.0265 14.4014C15.7683 14.8841 15.3841 15.2684 14.9013 15.5266C14.4763 15.7539 14.0202 15.8694 13.4404 15.8947L13.184 15.9001H7.81595C7.11081 15.9001 6.58438 15.7863 6.09872 15.5266C5.61595 15.2684 5.23169 14.8841 4.9735 14.4014C4.74623 13.9764 4.63072 13.5203 4.6054 12.9405L4.6 12.6841V12.3001C4.6 11.803 5.00294 11.4001 5.5 11.4001C5.95882 11.4001 6.33745 11.7434 6.39299 12.1872L6.4 12.3001V12.6841C6.4 13.1103 6.45134 13.3479 6.56076 13.5525C6.65119 13.7216 6.77851 13.8489 6.94759 13.9393C7.12297 14.0331 7.32256 14.0842 7.6444 14.0969L7.81595 14.1001H13.184C13.6102 14.1001 13.8478 14.0488 14.0524 13.9393C14.2215 13.8489 14.3488 13.7216 14.4392 13.5525C14.533 13.3771 14.5841 13.1775 14.5968 12.8557L14.6 12.6841V12.3001C14.6 11.803 15.0029 11.4001 15.5 11.4001ZM12.9361 4.1001C13.8848 4.1001 14.3827 4.19624 14.9013 4.4736C15.3841 4.73179 15.7683 5.11605 16.0265 5.59881C16.2807 6.07421 16.3827 6.53217 16.3979 7.33593L16.4 7.56398L16.399 8.0991L18.6 8.1001C19.0971 8.1001 19.5 8.50304 19.5 9.0001C19.5 9.49715 19.0971 9.9001 18.6 9.9001H2.4C1.90294 9.9001 1.5 9.49715 1.5 9.0001C1.5 8.50304 1.90294 8.1001 2.4 8.1001L4.599 8.0991L4.6 7.56398C4.6 6.6153 4.69614 6.11743 4.9735 5.59881C5.23169 5.11605 5.61595 4.73179 6.09872 4.4736C6.57411 4.21935 7.03208 4.11738 7.83583 4.10215L8.06389 4.1001H12.9361ZM12.9361 5.9001H8.06389C7.38694 5.9001 7.16979 5.94203 6.94759 6.06086C6.77851 6.15129 6.65119 6.27861 6.56076 6.44769C6.46474 6.62724 6.41893 6.8035 6.40488 7.22175L6.4 7.56398L6.399 8.0991H14.599L14.6 7.56398L14.5956 7.23754C14.5822 6.8079 14.5365 6.62949 14.4392 6.44769C14.3488 6.27861 14.2215 6.15129 14.0524 6.06086C13.8729 5.96484 13.6966 5.91903 13.2784 5.90498L12.9361 5.9001ZM5.49889 0.100098C5.99594 0.100098 6.39889 0.503041 6.39889 1.0001C6.39889 1.45892 6.05555 1.83755 5.61178 1.89309L5.49889 1.9001H5.07012C4.26399 1.9001 3.84545 1.98784 3.45917 2.19443C3.12712 2.37201 2.87191 2.62722 2.69433 2.95927C2.50653 3.31043 2.41694 3.68826 2.4022 4.35971L2.4 5.0001C2.4 5.49715 1.99706 5.9001 1.5 5.9001C1.04118 5.9001 0.662549 5.55676 0.607013 5.11299L0.6 5.0001V4.57022C0.6 3.48757 0.747945 2.78189 1.10707 2.11039C1.45241 1.46466 1.96456 0.952505 2.61029 0.607165C3.22075 0.280689 3.85945 0.128742 4.78395 0.103813L5.07012 0.100098H5.49889ZM15.9294 0.100098C17.0125 0.100098 17.7181 0.248012 18.3897 0.607165C19.0354 0.952505 19.5476 1.46466 19.8929 2.11039C20.2194 2.7209 20.3714 3.35957 20.3963 4.28437L20.4 4.57065V5.0001C20.4 5.49715 19.9971 5.9001 19.5 5.9001C19.0412 5.9001 18.6625 5.55676 18.607 5.11299L18.6 5.0001V4.57065C18.6 3.76409 18.5123 3.34559 18.3057 2.95927C18.1281 2.62722 17.8729 2.37201 17.5408 2.19443C17.1896 2.0066 16.8118 1.91703 16.1401 1.9023L15.5 1.9001C15.0029 1.9001 14.6 1.49715 14.6 1.0001C14.6 0.541277 14.9433 0.162646 15.3871 0.10711L15.5 0.100098H15.9294Z" fill="#24292E"/>
</svg>
