<svg width="24" height="24" viewBox="0 0 24 24" fill="none" xmlns="http://www.w3.org/2000/svg">
<path d="M21.0041 7.9985H2.99658" stroke="#83B1F4" stroke-width="1.5" stroke-linecap="round" stroke-linejoin="round"/>
<path d="M17.5024 13.0005C19.9887 13.0005 22.0042 15.016 22.0042 17.5024C22.0042 19.9887 19.9887 22.0042 17.5024 22.0042C15.016 22.0042 13.0005 19.9887 13.0005 17.5024C13.0005 15.016 15.016 13.0005 17.5024 13.0005" stroke="#83B1F4" stroke-width="1.5" stroke-linecap="round" stroke-linejoin="round"/>
<path d="M14.6744 21.0038H5.99783C4.34029 21.0038 2.99658 19.6601 2.99658 18.0026V5.99759C2.99658 4.34004 4.34029 2.99634 5.99783 2.99634H18.0028C19.6604 2.99634 21.0041 4.34004 21.0041 5.99759V14.6742" stroke="#83B1F4" stroke-width="1.5" stroke-linecap="round" stroke-linejoin="round"/>
<path d="M17.3955 15.9849V17.7436L18.7781 18.5869" stroke="#83B1F4" stroke-width="1.5" stroke-linecap="round" stroke-linejoin="round"/>
<path d="M13.7497 11.45C13.7226 11.45 13.7007 11.4719 13.7007 11.499C13.7007 11.5261 13.7226 11.548 13.7497 11.548C13.7768 11.548 13.7987 11.5261 13.7987 11.499C13.7987 11.4719 13.7768 11.45 13.7497 11.45" stroke="#83B1F4" stroke-width="1.5" stroke-linecap="round" stroke-linejoin="round"/>
<path d="M10.2482 11.45C10.2353 11.45 10.223 11.4552 10.2139 11.4644C10.2049 11.4736 10.1999 11.4861 10.2002 11.499C10.2002 11.5189 10.2123 11.5368 10.2307 11.5444C10.2492 11.5519 10.2703 11.5475 10.2843 11.5333C10.2982 11.5191 10.3021 11.4978 10.2942 11.4795C10.2863 11.4613 10.2681 11.4496 10.2482 11.45" stroke="#83B1F4" stroke-width="1.5" stroke-linecap="round" stroke-linejoin="round"/>
<path d="M6.74681 11.45C6.73355 11.4497 6.72076 11.4549 6.71147 11.4644C6.70219 11.4738 6.69723 11.4867 6.69779 11.5C6.69779 11.5199 6.70985 11.5378 6.72829 11.5454C6.74673 11.5529 6.76789 11.5485 6.78183 11.5343C6.79577 11.5201 6.79971 11.4988 6.79181 11.4805C6.7839 11.4622 6.76572 11.4506 6.74581 11.451" stroke="#83B1F4" stroke-width="1.5" stroke-linecap="round" stroke-linejoin="round"/>
<path d="M10.2482 14.4512C10.2353 14.4512 10.223 14.4564 10.2139 14.4656C10.2049 14.4748 10.1999 14.4873 10.2002 14.5002C10.2002 14.5201 10.2123 14.5381 10.2307 14.5456C10.2492 14.5531 10.2703 14.5487 10.2843 14.5345C10.2982 14.5203 10.3021 14.499 10.2942 14.4808C10.2863 14.4625 10.2681 14.4508 10.2482 14.4512" stroke="#83B1F4" stroke-width="1.5" stroke-linecap="round" stroke-linejoin="round"/>
<path d="M6.74681 14.4512C6.73355 14.4509 6.72076 14.4561 6.71147 14.4656C6.70219 14.4751 6.69723 14.488 6.69779 14.5012C6.69779 14.5211 6.70985 14.5391 6.72829 14.5466C6.74673 14.5541 6.76789 14.5497 6.78183 14.5355C6.79577 14.5213 6.79971 14.5 6.79181 14.4817C6.7839 14.4635 6.76572 14.4518 6.74581 14.4522" stroke="#83B1F4" stroke-width="1.5" stroke-linecap="round" stroke-linejoin="round"/>
<path d="M10.2482 17.4534C10.2353 17.4534 10.223 17.4586 10.2139 17.4678C10.2049 17.477 10.1999 17.4895 10.2002 17.5024C10.2002 17.5223 10.2123 17.5403 10.2307 17.5478C10.2492 17.5553 10.2703 17.5509 10.2843 17.5367C10.2982 17.5225 10.3021 17.5012 10.2942 17.483C10.2863 17.4647 10.2681 17.453 10.2482 17.4534" stroke="#83B1F4" stroke-width="1.5" stroke-linecap="round" stroke-linejoin="round"/>
<path d="M6.74679 17.4534C6.73371 17.4531 6.72108 17.4582 6.71183 17.4674C6.70258 17.4767 6.6975 17.4893 6.69777 17.5024C6.69778 17.5223 6.70983 17.5403 6.72827 17.5478C6.74671 17.5553 6.76788 17.5509 6.78181 17.5367C6.79575 17.5225 6.79969 17.5012 6.79179 17.483C6.78389 17.4647 6.76571 17.453 6.74579 17.4534" stroke="#83B1F4" stroke-width="1.5" stroke-linecap="round" stroke-linejoin="round"/>
</svg>
