<svg width="16" height="16" viewBox="0 0 16 16" fill="none" xmlns="http://www.w3.org/2000/svg">
<path fill-rule="evenodd" clip-rule="evenodd" d="M11.5 6.9999C11.5 7.59084 11.3836 8.17601 11.1574 8.72197C10.9313 9.26794 10.5998 9.76401 10.182 10.1819C9.7641 10.5997 9.26803 10.9312 8.72206 11.1574C8.1761 11.3835 7.59094 11.4999 6.99999 11.4999C6.40904 11.4999 5.82388 11.3835 5.27791 11.1574C4.73195 10.9312 4.23587 10.5997 3.81801 10.1819C3.40014 9.76401 3.06868 9.26794 2.84253 8.72197C2.61638 8.17601 2.49999 7.59084 2.49999 6.9999C2.49999 5.80642 2.97409 4.66183 3.81801 3.81792C4.66192 2.974 5.80651 2.4999 6.99999 2.4999C8.19346 2.4999 9.33805 2.974 10.182 3.81792C11.0259 4.66183 11.5 5.80642 11.5 6.9999ZM10.68 11.7399C9.47437 12.6759 7.95736 13.1172 6.43779 12.974C4.91822 12.8309 3.51033 12.114 2.50074 10.9693C1.49114 9.82461 0.955743 8.33819 1.00352 6.81265C1.05131 5.2871 1.67869 3.8371 2.75794 2.75785C3.8372 1.6786 5.28719 1.05122 6.81274 1.00343C8.33829 0.955649 9.8247 1.49105 10.9694 2.50065C12.1141 3.51024 12.831 4.91813 12.9741 6.4377C13.1173 7.95726 12.676 9.47427 11.74 10.6799L14.78 13.7199C14.8537 13.7886 14.9128 13.8714 14.9538 13.9634C14.9948 14.0554 15.0168 14.1547 15.0186 14.2554C15.0204 14.3561 15.0018 14.4561 14.9641 14.5495C14.9264 14.6429 14.8702 14.7277 14.799 14.7989C14.7278 14.8702 14.643 14.9263 14.5496 14.964C14.4562 15.0017 14.3562 15.0203 14.2555 15.0185C14.1548 15.0167 14.0554 14.9947 13.9635 14.9537C13.8715 14.9127 13.7887 14.8536 13.72 14.7799L10.68 11.7399Z" fill="white"/>
</svg>
