<svg width="24" height="24" viewBox="0 0 24 24" fill="none" xmlns="http://www.w3.org/2000/svg">
<path fill-rule="evenodd" clip-rule="evenodd" d="M7.73124 20.833C7.22417 21.0977 6.61072 21.0511 6.14946 20.7129C5.68819 20.3746 5.45933 19.8035 5.55933 19.2404L6.36867 14.6014L2.96125 11.3361C2.54475 10.9389 2.39211 10.3385 2.56835 9.79059C2.74458 9.24271 3.21864 8.84388 3.7886 8.764L8.51957 8.08772L10.6555 3.82694C10.9087 3.31595 11.4297 2.99268 12 2.99268C12.5703 2.99268 13.0913 3.31595 13.3446 3.82694L15.4805 8.08772L20.2114 8.764C20.7814 8.84388 21.2555 9.24271 21.4317 9.79059C21.6079 10.3385 21.4553 10.9389 21.0388 11.3361L17.6314 14.6014L18.4407 19.2414C18.5407 19.8045 18.3118 20.3756 17.8506 20.7139C17.3893 21.0521 16.7759 21.0987 16.2688 20.834L12 18.6281L7.73124 20.833Z" stroke="#306CDC" stroke-width="1.5" stroke-linecap="round" stroke-linejoin="round"/>
</svg>
