<svg width="24" height="24" viewBox="0 0 24 24" fill="none" xmlns="http://www.w3.org/2000/svg">
<path d="M17.032 12.4668C17.05 12.4848 17.05 12.5138 17.032 12.5318C17.014 12.5498 16.985 12.5498 16.967 12.5318C16.949 12.5138 16.949 12.4848 16.967 12.4668C16.985 12.4488 17.015 12.4498 17.032 12.4668" stroke="#306CDC" stroke-width="1.5" stroke-linecap="round" stroke-linejoin="round"/>
<path d="M14.662 7.478C14.873 7.027 15 6.53 15 6C15 4.067 13.433 2.5 11.5 2.5C9.567 2.5 8 4.067 8 6C8 6.623 8.176 7.2 8.462 7.706" stroke="#306CDC" stroke-width="1.5" stroke-linecap="round" stroke-linejoin="round"/>
<path d="M2.288 10.5C1.819 10.773 1.5 11.276 1.5 11.858C1.5 12.729 2.206 13.435 3.077 13.435H4" stroke="#306CDC" stroke-width="1.5" stroke-linecap="round" stroke-linejoin="round"/>
<path fill-rule="evenodd" clip-rule="evenodd" d="M18.5 6.5V9.054C19.218 9.702 19.788 10.51 20.126 11.435H21C21.552 11.435 22 11.883 22 12.435V15.5C22 16.052 21.552 16.5 21 16.5H19.689C19.164 17.408 18.406 18.164 17.5 18.691V20.5C17.5 21.052 17.052 21.5 16.5 21.5H14.5C13.948 21.5 13.5 21.052 13.5 20.5V19.5H10V20.368C10 20.92 9.552 21.368 9 21.368H7C6.448 21.368 6 20.92 6 20.368V17.963C4.775 16.864 4 15.275 4 13.5C4 10.186 6.686 7.5 10 7.5H14.526C14.955 7.5 15.371 7.359 15.713 7.101C16.212 6.725 16.828 6.5 17.5 6.5H18.5V6.5Z" stroke="#306CDC" stroke-width="1.5" stroke-linecap="round" stroke-linejoin="round"/>
</svg>
