<svg width="24" height="24" viewBox="0 0 24 24" fill="none" xmlns="http://www.w3.org/2000/svg">
<path d="M13.53 7.52002L9.46997 10.56" stroke="#ACACAC" stroke-width="1.5" stroke-linecap="round" stroke-linejoin="round"/>
<path d="M16.4049 4.64203C17.1984 5.43558 17.1984 6.72217 16.4049 7.51571C15.6113 8.30926 14.3247 8.30926 13.5312 7.51571C12.7376 6.72217 12.7376 5.43557 13.5312 4.64203C14.3247 3.84849 15.6113 3.84849 16.4049 4.64203" stroke="#ACACAC" stroke-width="1.5" stroke-linecap="round" stroke-linejoin="round"/>
<path d="M13.53 16.4799L9.46997 13.4399" stroke="#ACACAC" stroke-width="1.5" stroke-linecap="round" stroke-linejoin="round"/>
<path d="M16.4049 16.4838C17.1984 17.2774 17.1984 18.564 16.4049 19.3575C15.6113 20.1511 14.3247 20.1511 13.5312 19.3575C12.7376 18.564 12.7376 17.2774 13.5312 16.4838C14.3247 15.6903 15.6113 15.6903 16.4049 16.4838" stroke="#ACACAC" stroke-width="1.5" stroke-linecap="round" stroke-linejoin="round"/>
<path d="M9.46542 10.5643C10.2582 11.3571 10.2582 12.6424 9.46542 13.4351C8.67266 14.2279 7.38733 14.2279 6.59457 13.4351C5.80181 12.6424 5.80181 11.3571 6.59457 10.5643C7.38734 9.77154 8.67266 9.77154 9.46542 10.5643" stroke="#ACACAC" stroke-width="1.5" stroke-linecap="round" stroke-linejoin="round"/>
</svg>
