<svg width="21" height="20" viewBox="0 0 21 20" fill="none" xmlns="http://www.w3.org/2000/svg">
<path fill-rule="evenodd" clip-rule="evenodd" d="M9.90707 1.54722C10.3 1.48426 10.7004 1.48426 11.0933 1.54722C11.5379 1.61847 11.9587 1.79515 12.5667 2.05041C12.593 2.06143 12.6196 2.07259 12.6465 2.0839L17.0684 3.93891C17.0995 3.95196 17.1304 3.96486 17.161 3.97765C17.6004 4.16129 17.9866 4.32264 18.2825 4.59801C18.5416 4.83901 18.7401 5.13772 18.8621 5.46988C19.0015 5.8494 19.0009 6.26803 19.0003 6.74448C19.0002 6.77766 19.0002 6.81113 19.0002 6.84488V12.6229C19.0002 12.6623 19.0002 12.7012 19.0003 12.7396C19.0008 13.3941 19.0013 13.9077 18.8315 14.37C18.6824 14.776 18.4397 15.1411 18.1231 15.4356C17.7625 15.7711 17.2889 15.9693 16.6854 16.2218C16.65 16.2367 16.6141 16.2517 16.5778 16.2669L12.6465 17.9161C12.6196 17.9274 12.593 17.9386 12.5667 17.9496C11.9588 18.2048 11.5379 18.3815 11.0933 18.4528C10.7004 18.5157 10.3 18.5157 9.90707 18.4528C9.46244 18.3815 9.04162 18.2048 8.43364 17.9496C8.4074 17.9386 8.38081 17.9274 8.35385 17.9161L4.42261 16.2669C4.38628 16.2517 4.3504 16.2367 4.31496 16.2218C3.71144 15.9693 3.23783 15.7711 2.8773 15.4356C2.56072 15.1411 2.31802 14.776 2.16891 14.37C1.9991 13.9077 1.99954 13.3941 2.00012 12.7396C2.00015 12.7012 2.00018 12.6623 2.00018 12.6229V6.84488C2.00018 6.81113 2.00014 6.77766 2.00009 6.74447C1.99942 6.26803 1.99884 5.8494 2.13823 5.46988C2.26023 5.13772 2.4588 4.83901 2.71782 4.59801C3.01378 4.32264 3.39993 4.16129 3.83939 3.97765C3.87001 3.96486 3.90088 3.95196 3.932 3.93891L8.35385 2.0839C8.38081 2.07259 8.4074 2.06143 8.43365 2.05041C9.04162 1.79515 9.46244 1.61847 9.90707 1.54722ZM11.2502 16.8622C11.4361 16.7952 11.6847 16.6924 12.0664 16.5323L15.9977 14.8831C16.7612 14.5628 16.9621 14.4665 17.1015 14.3369C17.2454 14.203 17.3557 14.037 17.4235 13.8525C17.4891 13.6738 17.5002 13.4512 17.5002 12.6229V6.87213L12.6465 8.90828C12.6196 8.91959 12.593 8.93076 12.5667 8.94177C12.0284 9.16777 11.6369 9.33218 11.2456 9.41635C11.2486 9.44375 11.2502 9.4716 11.2502 9.49982V16.8622ZM9.75477 9.41635C9.75174 9.44375 9.75018 9.4716 9.75018 9.49982V16.8622C9.56422 16.7952 9.31564 16.6924 8.93394 16.5323L5.00271 14.8831C4.23916 14.5628 4.03823 14.4665 3.89887 14.3369C3.75497 14.203 3.64466 14.037 3.57688 13.8525C3.51124 13.6738 3.50018 13.4512 3.50018 12.6229V6.87213L8.35385 8.90828C8.38081 8.91959 8.4074 8.93076 8.43364 8.94177C8.97192 9.16777 9.36349 9.33218 9.75477 9.41635ZM4.10301 5.49787L8.93394 7.52449C9.65212 7.82577 9.89903 7.924 10.1443 7.9633C10.3801 8.00108 10.6203 8.00108 10.8561 7.9633C11.1013 7.924 11.3483 7.82577 12.0664 7.52449L12.792 7.22011L6.76013 4.6897C6.65197 4.64433 6.56003 4.57656 6.48742 4.49404L4.51209 5.3227C4.33755 5.39592 4.20503 5.45258 4.10301 5.49787ZM8.32992 3.72109L14.7313 6.40654L16.8974 5.49787C16.7953 5.45258 16.6628 5.39592 16.4883 5.3227L12.0664 3.4677C11.3483 3.16642 11.1013 3.06819 10.8561 3.02888C10.6203 2.99111 10.3801 2.99111 10.1443 3.02888C9.89903 3.06819 9.65212 3.16642 8.93394 3.4677L8.32992 3.72109Z" fill="#959DA5"/>
</svg>
