<svg width="21" height="20" viewBox="0 0 21 20" fill="none" xmlns="http://www.w3.org/2000/svg">
<path fill-rule="evenodd" clip-rule="evenodd" d="M10.5 10.3571C12.6697 10.3571 14.4286 8.59826 14.4286 6.42857C14.4286 4.25888 12.6697 2.5 10.5 2.5C8.33029 2.5 6.57141 4.25888 6.57141 6.42857C6.57141 8.59826 8.33029 10.3571 10.5 10.3571ZM10.5 8.92857C11.8807 8.92857 13 7.80928 13 6.42857C13 5.04786 11.8807 3.92857 10.5 3.92857C9.11927 3.92857 7.99998 5.04786 7.99998 6.42857C7.99998 7.80928 9.11927 8.92857 10.5 8.92857ZM14.0714 19.2857C16.4383 19.2857 18.3571 17.3669 18.3571 15C18.3571 12.6331 16.4383 10.7143 14.0714 10.7143C11.7045 10.7143 9.7857 12.6331 9.7857 15C9.7857 17.3669 11.7045 19.2857 14.0714 19.2857ZM9.05875 11.8349C9.13269 12.2224 8.8785 12.5965 8.491 12.6704C6.86798 12.9801 6.15361 13.6432 5.82725 14.1349C5.65744 14.3908 5.57544 14.6259 5.5358 14.7899C5.51599 14.8719 5.50698 14.9353 5.50295 14.9732C5.50101 14.9914 5.50025 15.0035 5.49998 15.0087V15.3571C5.49998 15.5543 5.65988 15.7142 5.85713 15.7142H7.99998C8.39447 15.7142 8.71427 16.034 8.71427 16.4285C8.71427 16.823 8.39447 17.1428 7.99998 17.1428H5.85713C4.8709 17.1428 4.07141 16.3433 4.07141 15.3571V14.9999H4.7857C4.07141 14.9999 4.07141 14.9988 4.07141 14.9988L4.07141 14.9977L4.07143 14.9952L4.07148 14.9896L4.07173 14.9757C4.07199 14.9653 4.07243 14.9526 4.07318 14.9376C4.07468 14.9077 4.07742 14.8688 4.08239 14.8221C4.09232 14.7288 4.11121 14.6033 4.1472 14.4544C4.21917 14.1565 4.36038 13.7617 4.637 13.3449C5.2035 12.4914 6.27484 11.639 8.22325 11.2672C8.61075 11.1933 8.98482 11.4474 9.05875 11.8349ZM16.1687 13.9361L14.9738 13.8188L14.4478 12.5773C14.2831 12.1886 13.8609 12.1884 13.6961 12.5772L13.1698 13.8188L11.9752 13.9361C11.5576 13.9771 11.4306 14.3913 11.753 14.6654L12.6884 15.4608L12.3412 16.7567C12.2271 17.1823 12.5824 17.4388 12.9353 17.1837L14.072 16.3623L15.2086 17.1837C15.563 17.4399 15.9168 17.1822 15.8027 16.7567L15.4555 15.4608L16.3909 14.6654C16.712 14.3924 16.5845 13.9769 16.1687 13.9361Z" fill="#959DA5"/>
</svg>
